<?xml version="1.0" encoding="utf-8"?>
<!-- Generator: Adobe Illustrator 22.1.0, SVG Export Plug-In . SVG Version: 6.00 Build 0)  -->
<svg version="1.1" id="Capa_1" xmlns="http://www.w3.org/2000/svg" xmlns:xlink="http://www.w3.org/1999/xlink" x="0px" y="0px"
	 viewBox="0 0 100 100" style="enable-background:new 0 0 100 100;" xml:space="preserve">
<style type="text/css">
	.st0{fill:#FFFFFF;}
</style>
<g id="QjCNs4.tif">
	<g>
		<path class="st0" d="M13.7,63.6c0.2-0.3,0.5-0.5,0.7-0.8c4.1-4.1,8.2-8.2,12.3-12.3c0.1-0.1,0.2-0.2,0.4-0.3
			c-4.5-4.5-9-8.9-13.5-13.3c0,0,0.1-0.1,0.1-0.1c8.9,0,17.7,0,26.7,0c-4.5,4.5-9,8.9-13.5,13.3c0.2,0.2,0.3,0.4,0.4,0.5
			c4.3,4.3,8.6,8.6,12.9,12.9c0.1,0.1,0.1,0.1,0.2,0.2C31.5,63.6,22.6,63.6,13.7,63.6z"/>
		<path class="st0" d="M13.5,63.6c-0.1-0.1-0.2-0.3-0.3-0.4C9,59,4.7,54.8,0.5,50.6c-0.1-0.1-0.3-0.2-0.3-0.3
			c4.5-4.5,8.9-8.9,13.4-13.4c0,0.1,0,0.2,0,0.4c0,8.6,0,17.2,0,25.8C13.6,63.3,13.6,63.4,13.5,63.6C13.5,63.6,13.5,63.6,13.5,63.6z
			"/>
		<path class="st0" d="M40.5,63.6c0-8.9,0-17.8,0-26.6c4.4,4.4,8.9,8.8,13.3,13.3c-0.1,0.1-0.2,0.2-0.3,0.3
			c-4.2,4.2-8.5,8.5-12.7,12.7C40.7,63.3,40.6,63.4,40.5,63.6C40.5,63.6,40.5,63.6,40.5,63.6z"/>
		<path class="st0" d="M100,52.6c0,0,0,0.1-0.1,0.1c-0.3,1.9-1.6,2.9-3.4,3.2c-1,0.2-1.9,0.2-2.9-0.1c-1.7-0.4-2.8-1.5-3.3-3.2
			c-0.5-1.7-0.5-3.3,0.1-5c0.8-2.5,3-3.6,5.5-3.4c1,0.1,2,0.3,2.8,1c0.8,0.6,1.2,1.5,1.2,2.5c-0.8,0-1.6,0-2.5,0c0,0,0,0,0-0.1
			c-0.4-1.6-2.2-2.1-3.5-1c-0.7,0.6-1,1.4-1.2,2.3c-0.2,1.2-0.2,2.4,0.3,3.5c0.5,1.3,1.7,2,3,1.6c0.9-0.2,1.3-0.8,1.5-1.7
			c0.8,0,1.7,0,2.5,0C100,52.5,100,52.5,100,52.6z"/>
		<path class="st0" d="M86.5,49.9c0.3,0.1,0.5,0.2,0.8,0.3c1,0.4,1.7,1.1,1.7,2.2c0.1,1.2-0.3,2.1-1.3,2.7c-0.7,0.4-1.5,0.6-2.4,0.7
			c-1.7,0-3.4,0-5.2,0c0-3.7,0-7.4,0-11.2c0,0,0,0,0,0c2,0,3.9,0,5.9,0.1c0.8,0,1.5,0.4,2,1c1.1,1.3,0.7,3.3-0.9,4
			C86.9,49.7,86.7,49.8,86.5,49.9z M82.4,50.8c0,1.1,0,2.1,0,3.2c0.7,0,1.4,0,2.1,0c0.2,0,0.4,0,0.6-0.1c0.9-0.2,1.3-0.7,1.3-1.6
			c0-0.9-0.4-1.4-1.3-1.5C84.3,50.8,83.4,50.8,82.4,50.8z M82.5,49.3c0.9-0.1,1.8-0.1,2.7-0.2c0.7-0.1,1-0.6,1.1-1.3
			c0-0.7-0.3-1.2-1-1.4c-0.9-0.3-1.8-0.1-2.8-0.2C82.5,47.2,82.5,48.2,82.5,49.3z"/>
		<path class="st0" d="M60.8,51c0,1.6,0,3.2,0,4.8c-0.8,0-1.6,0-2.4,0c0-3.7,0-7.4,0-11.2c0.8,0,1.6,0,2.4,0c0,1.5,0,3,0,4.5
			c1.6,0,3.2,0,4.9,0c0-1.5,0-3,0-4.5c0.8,0,1.6,0,2.4,0c0,3.7,0,7.5,0,11.2c-0.8,0-1.6,0-2.4,0c0-1.6,0-3.2,0-4.8
			C64.1,51,62.5,51,60.8,51z"/>
		<path class="st0" d="M78.3,47.6c-0.7,0-1.5,0-2.2,0c-0.1,0-0.2-0.1-0.3-0.2c-0.4-1.4-2.1-1.9-3.2-0.9c-0.7,0.6-0.6,1.6,0.2,2
			c0.8,0.3,1.6,0.6,2.4,0.9c0.5,0.2,1.1,0.4,1.6,0.6c2.4,1,2.1,4.1,0.5,5.2c-1.2,0.8-2.6,1.1-4,0.9c-0.7-0.1-1.5-0.2-2.2-0.6
			c-1.3-0.6-1.7-1.7-1.8-3c0.8,0,1.6,0,2.4,0c0,0.1,0.1,0.1,0.1,0.2c0.1,0.8,0.5,1.4,1.3,1.6c1,0.2,1.9,0.1,2.5-0.7
			c0.5-0.6,0.3-1.5-0.4-1.8c-0.6-0.3-1.3-0.4-2-0.7c-0.7-0.3-1.5-0.5-2.2-0.8c-2.1-1.1-1.8-3.9-0.2-5c0.6-0.4,1.3-0.7,2.1-0.7
			c1.2-0.1,2.3-0.1,3.4,0.3C77.7,45.2,78.3,46.2,78.3,47.6z"/>
	</g>
</g>
</svg>
