<?xml version="1.0" encoding="utf-8"?>
<!-- Generator: Adobe Illustrator 22.1.0, SVG Export Plug-In . SVG Version: 6.00 Build 0)  -->
<svg version="1.1" id="Capa_1" xmlns="http://www.w3.org/2000/svg" xmlns:xlink="http://www.w3.org/1999/xlink" x="0px" y="0px"
	 viewBox="0 0 100 100" style="enable-background:new 0 0 100 100;" xml:space="preserve">
<style type="text/css">
	.st0{fill:#FFFFFF;}
</style>
<g id="grQAWX_1_">
	<g>
		<path class="st0" d="M29,77.8c0-1.3,0-2.4,0-3.9c0.9,0,1.8,0,2.6,0c18.1,0,36.1,0,54.2,0c1,0,2,0,3-0.2c3.1-0.7,5-3.2,4.6-6
			c-0.4-2.9-3.2-5.3-6-5.3c-18.1,0-36.1,0-54.2,0c-0.9,0-1.8,0-2.9,0c-2.1-10-4.2-19.9-6.2-29.8c-1.2-5.7-2.5-11.3-3.5-17
			c-0.3-1.6-1.1-2.3-2.4-3C12.9,10,7.6,7.4,2.3,4.9C1.6,4.5,0.8,4.1,0,3.7C0.6,2.4,1.2,1.3,1.9,0C9,3.5,16,6.8,23,10.3
			c0.6,0.3,1.1,1.2,1.3,2c0.8,3.4,1.5,6.9,2.3,10.5c24.5,0,48.9,0,73.5,0c-1.8,8.9-3.6,17.6-5.4,26.3c-0.3,1.4-0.4,2.8-0.8,4.1
			c-1,3.5-1.5,6.5,1.8,9.5c2.6,2.4,3.3,6,1.6,9.4c-1.7,3.4-4.5,5.4-8.4,5.8c-0.5,0.1-1.1,0.1-1.6,0.1c-18.6,0-37.2,0-55.8,0
			C30.6,77.9,29.9,77.9,29,77.8z M27.4,27.1C29.6,37.5,31.8,47.7,34,58c18.3,0,36.4,0,54.6,0c2.1-10.3,4.2-20.5,6.4-30.8
			C72.4,27.1,50,27.1,27.4,27.1z"/>
		<path class="st0" d="M84.7,84c4.5,0.1,7.9,3.7,7.8,8.3c-0.1,4.3-3.7,7.7-8.2,7.6c-4.5-0.1-8-3.8-7.8-8.3
			C76.6,87.2,80.2,83.9,84.7,84z M88.3,91.9c0-2.1-1.6-3.8-3.8-3.8c-2.1,0-3.9,1.7-3.9,3.8c0,2.1,1.7,3.8,3.8,3.9
			C86.7,95.8,88.3,94.2,88.3,91.9z"/>
		<path class="st0" d="M33,92c0-4.4,3.4-7.9,7.9-8c4.6-0.1,8.1,3.4,8.2,7.9c0.1,4.3-3.5,8-7.9,8.1C36.7,100.1,33,96.5,33,92z
			 M41.1,95.8c2.1,0,3.9-1.8,3.9-3.8c0-2.1-1.8-3.8-3.9-3.8c-2.2,0-3.8,1.7-3.8,3.8C37.2,94.2,38.9,95.8,41.1,95.8z"/>
	</g>
</g>
</svg>
