<?xml version="1.0" encoding="utf-8"?>
<!-- Generator: Adobe Illustrator 22.1.0, SVG Export Plug-In . SVG Version: 6.00 Build 0)  -->
<svg version="1.1" id="Capa_1" xmlns="http://www.w3.org/2000/svg" xmlns:xlink="http://www.w3.org/1999/xlink" x="0px" y="0px"
	 viewBox="0 0 100 100" style="enable-background:new 0 0 100 100;" xml:space="preserve">
<style type="text/css">
	.st0{fill:#FFFFFF;}
</style>
<path class="st0" d="M99.6,27.6L99.6,27.6c-0.9-6.1-3.2-11.5-6.9-16c-2.8-3.5-6.2-6-10.2-7.7C79.8,2.7,77,2.1,73.9,2
	c-3.8-0.2-8.7-0.1-13.7,2c-4.4,1.9-7.7,5-10.1,7.6c-1.7-1.8-3.3-3.3-5-4.6c-3.8-2.8-8.2-4.5-13.3-5c-3.6-0.2-6.5-0.1-9.1,0.3
	c-5.8,0.9-11,4-15,8.7C1.2,19-1.2,28.4,0.5,39.9c0.9,6.2,3.3,12.3,7.6,19c2.4,3.8,5.3,7.6,9.1,11.8c6.4,7,13.9,13.8,23,20.6
	c1.3,1,2.6,1.9,4,2.9c1.3,1,2.6,1.9,3.9,2.9l1.9,1.4l2.1-1.4c0.2-0.1,0.5-0.3,0.8-0.6c1.5-1.1,3-2.3,4.6-3.4
	c3.1-2.3,6.3-4.7,9.4-7.2c8.8-7.1,15.9-14.1,21.4-21.4c4.5-6,7.6-11.5,9.6-17.4C99.9,40.9,100.5,34.4,99.6,27.6z M31.3,8.7
	c3.7,0.3,7,1.6,9.8,3.6c2,1.5,3.8,3.3,6,5.9l0.1,0.2c0,0-0.1-0.1-0.1-0.1c0,0,0,0,0,0c0.2,0.2,0.3,0.4,0.6,0.7l2.5,2.5l2.3-2.6
	c0.7-0.8,1.4-1.6,2.1-2.5c2.1-2.3,4.7-4.8,8.1-6.3c2.9-1.2,6.2-1.7,10.8-1.5C76,8.7,78,9.2,79.9,10c3,1.3,5.5,3.1,7.6,5.8
	c2.9,3.6,4.8,7.8,5.4,12.7c0.8,5.7,0.3,11.2-1.5,16.3l0,0C89.7,50.1,87,55,82.9,60.4C77.7,67.3,71,73.9,62.6,80.7
	c-3,2.4-6.2,4.8-9.2,7.1c-1.1,0.8-2.2,1.7-3.4,2.5c-0.6-0.5-1.3-0.9-1.9-1.4L48,88.8c-1.3-1-2.6-1.9-3.9-2.9
	c-8.7-6.6-16-13.1-22.1-19.8c-3.5-3.9-6.2-7.4-8.4-10.9C10,49.5,7.9,44.3,7.1,39c-1.4-9.5,0.5-17.2,5.7-23.6c2.9-3.5,6.7-5.7,11-6.4
	c1.4-0.2,2.8-0.3,4.5-0.3C29.3,8.6,30.2,8.7,31.3,8.7z"/>
</svg>
