<?xml version="1.0" encoding="utf-8"?>
<!-- Generator: Adobe Illustrator 22.1.0, SVG Export Plug-In . SVG Version: 6.00 Build 0)  -->
<svg version="1.1" id="Capa_1" xmlns="http://www.w3.org/2000/svg" xmlns:xlink="http://www.w3.org/1999/xlink" x="0px" y="0px"
	 viewBox="0 0 100 100" style="enable-background:new 0 0 100 100;" xml:space="preserve">
<style type="text/css">
	.st0{fill:#FFFFFF;}
</style>
<g id="u6p9FQ_1_">
	<g>
		<path class="st0" d="M70.7,61.9c9,8.8,17.8,17.5,26.7,26.2c3,3,3.7,6.4,0.8,9.8c-2.6,3-6.7,2.7-10.2-0.5c-1.3-1.2-2.5-2.5-3.7-3.7
			c-7.5-7.6-15-15.2-22.3-22.6c-24,11.2-43.6,7.3-55.5-10.4C-4.2,44.5-1.5,23,12.9,9.9C26.4-2.5,48.2-3.3,62.8,8
			C78.8,20.5,82.1,41.5,70.7,61.9z M38.9,8.8C22.1,8.8,8.8,21.9,8.7,38.6C8.6,55.6,22,69.1,38.9,69.2c16.6,0,30.1-13.4,30.2-29.9
			C69.2,22.1,56,8.8,38.9,8.8z"/>
	</g>
</g>
</svg>
