<?xml version="1.0" encoding="utf-8"?>
<!-- Generator: Adobe Illustrator 22.1.0, SVG Export Plug-In . SVG Version: 6.00 Build 0)  -->
<svg version="1.1" id="Capa_1" xmlns="http://www.w3.org/2000/svg" xmlns:xlink="http://www.w3.org/1999/xlink" x="0px" y="0px"
	 viewBox="0 0 100 100" style="enable-background:new 0 0 100 100;" xml:space="preserve">
<style type="text/css">
	.st0{fill:#FFFFFF;}
</style>
<g id="TrVE6w_1_">
	<g>
		<g>
			<path class="st0" d="M72.9,100c-7.6,0-15.4,0-23.1-0.1H18.3c-0.5,0-1,0-1.5-0.1c-0.4,0-0.8,0-1.2,0c-3.1,0-5.9-1.1-8.4-3.4
				c-5.1-4.5-6.6-12-3.4-18c1.7-3,3.9-5.3,6.4-6.7c3.3-1.9,6.7-3.7,10.1-5.5c3.3-1.8,6.7-3.6,10-5.5c1.3-0.8,2.7-1.4,4-2.1
				c1.1-0.6,2.4-0.6,3.5,0c0.5,0.2,0.9,0.4,1.4,0.6c1.1,0.5,2.2,1.1,3.3,1.3l0.1,0c6.3,2,12.2,1.6,17.9-1.2c0.3-0.1,0.6-0.3,0.9-0.4
				c0.2-0.1,0.5-0.2,0.7-0.3c1.1-0.6,2.5-0.6,3.6,0l0.2,0.1c4.6,2.5,9.4,5.1,14.2,7.6c0.9,0.5,1.7,0.9,2.5,1.4
				c2.2,1.2,4.6,2.4,6.8,3.8c4.8,3,7.5,6.7,8.2,11.6c1.1,6.7-2.8,13.6-9.3,16l-0.1,0c-1.4,0.5-2.9,0.6-4.2,0.7l-0.1,0
				C80.4,99.9,76.6,100,72.9,100z M52.6,94.4c6.8,0.1,13.7,0.1,20.3,0.1c3.6,0,7.3-0.1,10.9-0.2c1-0.1,2-0.2,2.7-0.4
				c3.9-1.5,6.4-5.8,5.7-10c-0.5-3.2-2.3-5.6-5.7-7.7c-2.1-1.3-4.3-2.5-6.5-3.6c-0.9-0.5-1.7-0.9-2.5-1.4c-4.6-2.4-9.2-4.9-13.7-7.3
				c0,0-0.1,0-0.1,0c-0.3,0.1-0.5,0.3-0.8,0.4c-7,3.4-14.4,3.9-22,1.6c-1.5-0.4-2.9-1-4.2-1.7c-0.2-0.1-0.4-0.2-0.7-0.3
				c-1,0.5-2.1,1-3.1,1.6c-3.4,1.9-6.7,3.7-10.1,5.5c-3.3,1.8-6.7,3.6-10,5.5c-1.7,0.9-3.1,2.5-4.3,4.6c-1.9,3.6-1,8.4,2.2,11.2
				c1.5,1.4,3,2,4.7,2c0.5,0,1,0,1.5,0.1c0.4,0,0.8,0,1.2,0L52.6,94.4L52.6,94.4z"/>
		</g>
		<g>
			<path class="st0" d="M49.9,60c-6.9,0-13.1-2.8-18.1-8.2c-5.5-5.9-8.3-13.2-8.3-21.8c-0.1-7,2-13.5,6.3-19.3
				c4.4-6,10.5-9.6,17.6-10.5c4.3-0.6,8.9,0.2,13.2,2.2c5.7,2.7,10.2,7.2,13.1,13.4c2.2,4.8,3.2,9.5,3.1,14
				c0.1,7.9-2.3,14.9-7.2,20.8c-4.1,5-9.2,8-15,9C52.9,59.9,51.4,60,49.9,60z M50.2,5.5c-0.8,0-1.5,0.1-2.3,0.2
				C42.3,6.4,37.7,9.2,34.1,14c-3.6,4.9-5.3,10.1-5.2,16c0,7.2,2.2,13.1,6.8,18c4.9,5.2,10.9,7.3,17.8,6.1c4.5-0.8,8.4-3.1,11.6-7.1
				c4.1-4.9,6-10.6,5.9-17.2l0-0.1c0.1-3.7-0.8-7.6-2.6-11.5c-2.4-5-5.9-8.6-10.5-10.8C55.5,6.2,52.8,5.5,50.2,5.5z"/>
		</g>
	</g>
</g>
<g id="dBhI6m_1_">
	<g>
		<path d="M64.5,191.6c-1.9-1.4-3.7-2.7-5.6-4.1c-5.7-4.3-11.2-9-16-14.3c-2.3-2.5-4.4-5.2-6.2-8c-2.4-3.9-4.4-8-5.1-12.5
			c-1-6.8,0-13.1,4.6-18.6c2.4-2.9,5.5-4.8,9.3-5.4c1.9-0.3,3.9-0.3,5.9-0.2c3,0.3,5.7,1.2,8.2,3.1c1.7,1.3,3.2,2.9,4.6,4.5
			c0.1,0.1,0.2,0.3,0.4,0.4c0.5-0.6,1-1.1,1.5-1.7c1.9-2.1,4-4,6.7-5.1c2.8-1.2,5.7-1.4,8.7-1.3c1.8,0.1,3.6,0.4,5.3,1.1
			c2.5,1.1,4.6,2.7,6.3,4.8c2.5,3,3.9,6.4,4.4,10.2c0.6,4.3,0.2,8.5-1.2,12.7c-1.5,4.3-3.8,8.1-6.5,11.7
			c-4.3,5.6-9.3,10.4-14.8,14.8c-3.2,2.6-6.6,5.1-9.9,7.6C64.8,191.4,64.7,191.5,64.5,191.6z"/>
	</g>
</g>
</svg>
