<?xml version="1.0" standalone="no"?><!DOCTYPE svg PUBLIC "-//W3C//DTD SVG 1.1//EN" "http://www.w3.org/Graphics/SVG/1.1/DTD/svg11.dtd"><svg class="icon" height="512" viewBox="0 0 1024 1024" version="1.1" xmlns="http://www.w3.org/2000/svg"><path d="M259.686 577.331a52.224 52.224 0 0 0-72.396 0 48.845 48.845 0 0 0 0 70.451l289.69 281.6a52.224 52.224 0 0 0 72.396 0l289.587-281.6a48.845 48.845 0 0 0 0-70.45 52.224 52.224 0 0 0-72.397 0l-253.44 246.476-253.44-246.477z m506.88-128.717a52.224 52.224 0 0 0 72.397 0 48.845 48.845 0 0 0 0-70.45l-289.587-281.6a52.224 52.224 0 0 0-72.397 0L187.29 378.06a48.845 48.845 0 0 0 0 70.451 52.224 52.224 0 0 0 72.397 0l253.44-246.477 253.44 246.477z" /></svg>