<?xml version="1.0" encoding="utf-8"?>
<!-- Generator: Adobe Illustrator 22.1.0, SVG Export Plug-In . SVG Version: 6.00 Build 0)  -->
<svg version="1.0" id="Capa_1" xmlns="http://www.w3.org/2000/svg" xmlns:xlink="http://www.w3.org/1999/xlink" x="0px" y="0px"
	 viewBox="0 0 248 94" style="enable-background:new 0 0 248 94;" xml:space="preserve">
<style type="text/css">
	.st0{fill:#DB0011;}
	.st1{fill:#FFFFFF;}
</style>
<path class="st0" d="M74.1,86H18.2c-6,0-10.9-4.9-10.9-10.9V19.2c0-6,4.9-10.9,10.9-10.9h55.9c6,0,10.9,4.9,10.9,10.9v55.9
	C85,81.1,80.1,86,74.1,86"/>
<polygon class="st1" points="20.5,47.2 33.3,60 33.3,34.4 "/>
<polygon class="st1" points="33.3,59.9 58.9,59.9 46.1,47.2 "/>
<polygon class="st1" points="46.1,47.2 58.9,34.4 33.3,34.4 "/>
<polygon class="st1" points="58.9,34.4 58.9,59.9 71.7,47.2 "/>
<g>
	<path d="M103.8,43.1c-0.1-1.7-2-2.9-3.8-2.9c-4.4,0-5.3,4.1-5.3,7.2c0,3.7,1.1,7.2,5,7.2c1.9,0,3.7-0.9,4-2.9h2.6
		c-0.2,3-3.3,5-6.8,5c-5.3,0-7.4-4.3-7.4-9.4c0-4.4,1.9-9.5,8-9.4c3.5,0.1,6.1,1.8,6.3,5H103.8z"/>
	<path d="M121.2,50.2c0,3.9-2.1,6.6-6.2,6.6c-4.1,0-6.2-2.7-6.2-6.6c0-3.9,2.1-6.6,6.2-6.6C119.1,43.6,121.2,46.4,121.2,50.2z
		 M115,55.2c2.8,0,3.7-2.2,3.7-4.9c0-2.7-0.9-4.9-3.7-4.9c-2.8,0-3.7,2.2-3.7,4.9C111.3,52.9,112.2,55.2,115,55.2z"/>
	<path d="M127.2,45.8L127.2,45.8c0.8-1.6,2.6-2.2,3.8-2.2c0.9,0,4.7,0.2,4.7,4.2v8.6h-2.4v-7.9c0-2.1-0.9-3.2-2.9-3.2
		c0,0-1.3-0.1-2.3,0.9c-0.3,0.3-1,0.9-1,3.3v6.8h-2.4V44h2.3V45.8z"/>
	<path d="M140.2,44v-2.7l2.4-0.7V44l2.9-0.1v1.8l-2.9,0v8.1c0,0.9,0.7,1.3,1.5,1.3c0.4,0,0.9-0.1,1.2-0.2v1.8
		c-0.5,0-1.1,0.1-1.6,0.1c-0.6,0-1,0-1.6-0.1c-0.4-0.1-1-0.3-1.4-0.8c-0.4-0.6-0.5-0.6-0.5-2.3v-7.9l-2.1,0v-1.8L140.2,44z"/>
	<path d="M150.8,56.5h-2.4V44h2.4v2.4h0c0.3-1.7,1.9-2.6,3.7-2.6c0.3,0,0.5,0,0.8,0v2.2c-0.3-0.1-0.7-0.1-1-0.1
		c-3,0.1-3.5,1.7-3.5,4.3V56.5z"/>
	<path d="M169.7,50.2c0,3.9-2.1,6.6-6.2,6.6s-6.2-2.7-6.2-6.6c0-3.9,2.1-6.6,6.2-6.6S169.7,46.4,169.7,50.2z M163.4,55.2
		c2.8,0,3.7-2.2,3.7-4.9c0-2.7-0.9-4.9-3.7-4.9c-2.8,0-3.7,2.2-3.7,4.9C159.7,52.9,160.6,55.2,163.4,55.2z"/>
	<path d="M173.3,56.5v-18h2.4v18H173.3z"/>
	<path d="M191.3,40.7h-6v-2.1h14.5v2.1h-6v15.8h-2.5V40.7z"/>
	<path d="M211.4,50.2c0,3.9-2.1,6.6-6.2,6.6s-6.2-2.7-6.2-6.6c0-3.9,2.1-6.6,6.2-6.6S211.4,46.4,211.4,50.2z M205.2,55.2
		c2.8,0,3.7-2.2,3.7-4.9c0-2.7-0.9-4.9-3.7-4.9s-3.7,2.2-3.7,4.9C201.4,52.9,202.4,55.2,205.2,55.2z"/>
	<path d="M215.1,44v-2.7l2.4-0.7V44l2.9-0.1v1.8l-2.9,0v8.1c0,0.9,0.7,1.3,1.5,1.3c0.4,0,0.9-0.1,1.2-0.2v1.8
		c-0.5,0-1.1,0.1-1.6,0.1c-0.6,0-1,0-1.6-0.1c-0.4-0.1-1-0.3-1.4-0.8c-0.4-0.6-0.5-0.6-0.5-2.3v-7.9l-2.1,0v-1.8L215.1,44z"/>
	<path d="M230.6,48.8c0-2.2-0.1-3.4-2.6-3.4c-1.2,0-2.3,0.7-2.3,2h-2.5c0.1-2.7,2.3-3.7,4.7-3.7c2.6,0,5.1,0.8,5.1,4.3v6
		c0,0.5,0,1.6,0.1,2.6h-1.6c-0.2,0-0.6,0.1-0.7-0.2c-0.1-0.6-0.1-1.1-0.1-1.7h-0.1c-0.8,1.6-2.2,2.2-3.9,2.2c-2.2,0-4.4-1.1-4.4-3.6
		c0-3.5,3.1-4.5,6.1-4.5H230.6z M228.2,50.4c-1.4,0.1-3.4,0.6-3.4,2.4c0,1.5,1.1,2.3,2.5,2.3c2.8,0,3.3-2.4,3.3-4.7H228.2z"/>
	<path d="M237.2,56.5v-18h2.4v18H237.2z"/>
</g>
</svg>
