<svg xmlns="http://www.w3.org/2000/svg" viewBox="0 0 74.28 21.22"><defs><style>.cls-1{fill:#fff;}</style></defs><title>Recurso 3</title><g id="Capa_2" data-name="Capa 2"><g id="Capa_1-2" data-name="Capa 1"><g id="bMnHdN"><g id="_41cl5j" data-name="41cl5j"><path class="cls-1" d="M60.69,8.94,57.3,0c.83.05,1.49.06,2.14.14A1.05,1.05,0,0,1,60,.55c1.58,1.9,3.14,3.82,4.7,5.73.65.79,1.28,1.6,2,2.37a1.05,1.05,0,0,0,.7.25c1.31,0,2.62,0,3.94,0a3.72,3.72,0,0,1,2.49.78,1.08,1.08,0,0,1,0,1.82,3.61,3.61,0,0,1-2.49.78c-1.31,0-2.63,0-3.94,0a1.1,1.1,0,0,0-.78.36q-3.16,3.83-6.28,7.7a1.55,1.55,0,0,1-1.45.72,9.26,9.26,0,0,0-1.53.12l3.38-8.95c-1.33,0-2.57,0-3.81,0a.66.66,0,0,0-.42.26,7.47,7.47,0,0,0-1,1.24,2.18,2.18,0,0,1-2.73,1,5.25,5.25,0,0,1,.17-.6c.37-1,.79-2,1.12-3.07A2,2,0,0,0,54,10c-.32-1-.73-2-1.1-3-.07-.2-.13-.41-.21-.66,1-.13,2-.31,2.51.73a3.44,3.44,0,0,0,4,1.82A10,10,0,0,1,60.69,8.94Z"/></g></g><rect class="cls-1" x="45" y="9.92" width="5" height="1"/><rect class="cls-1" x="36" y="9.92" width="5" height="1"/><rect class="cls-1" x="27" y="9.92" width="5" height="1"/><rect class="cls-1" x="18" y="9.92" width="5" height="1"/><rect class="cls-1" x="9" y="9.92" width="5" height="1"/><rect class="cls-1" y="9.92" width="5" height="1"/></g></g></svg>