<?xml version="1.0" encoding="utf-8"?>
<!-- Generator: Adobe Illustrator 23.0.4, SVG Export Plug-In . SVG Version: 6.00 Build 0)  -->
<svg version="1.1" id="Capa_1" xmlns="http://www.w3.org/2000/svg" xmlns:xlink="http://www.w3.org/1999/xlink" x="0px" y="0px"
	 viewBox="0 0 100 26.7" style="enable-background:new 0 0 100 26.7;" xml:space="preserve">
<style type="text/css">
	.st0{fill:#EE3B25;}
</style>
<path class="st0" d="M13.7,26.6c0.2-0.3,0.5-0.5,0.7-0.8c4.1-4.1,8.2-8.2,12.3-12.3c0.1-0.1,0.2-0.2,0.4-0.3
	c-4.5-4.5-9-8.9-13.5-13.3l0.1-0.1c8.9,0,17.7,0,26.7,0c-4.5,4.5-9,8.9-13.5,13.3c0.2,0.2,0.3,0.4,0.4,0.5
	c4.3,4.3,8.6,8.6,12.9,12.9c0.1,0.1,0.1,0.1,0.2,0.2C31.5,26.6,22.6,26.6,13.7,26.6z"/>
<path class="st0" d="M13.5,26.6c-0.1-0.1-0.2-0.3-0.3-0.4C9,22,4.7,17.8,0.5,13.6c-0.1-0.1-0.3-0.2-0.3-0.3
	C4.7,8.8,9.1,4.4,13.6-0.1c0,0.1,0,0.2,0,0.4c0,8.6,0,17.2,0,25.8C13.6,26.3,13.6,26.4,13.5,26.6L13.5,26.6z"/>
<path class="st0" d="M40.5,26.6c0-8.9,0-17.8,0-26.6c4.4,4.4,8.9,8.8,13.3,13.3c-0.1,0.1-0.2,0.2-0.3,0.3
	c-4.2,4.2-8.5,8.5-12.7,12.7C40.7,26.3,40.6,26.4,40.5,26.6L40.5,26.6z"/>
<path d="M100,15.6C100,15.6,100,15.7,100,15.6c-0.4,2-1.7,3-3.5,3.3c-1,0.2-1.9,0.2-2.9-0.1c-1.7-0.4-2.8-1.5-3.3-3.2
	s-0.5-3.3,0.1-5c0.8-2.5,3-3.6,5.5-3.4c1,0.1,2,0.3,2.8,1c0.8,0.6,1.2,1.5,1.2,2.5c-0.8,0-1.6,0-2.5,0c0,0,0,0,0-0.1
	c-0.4-1.6-2.2-2.1-3.5-1c-0.7,0.6-1,1.4-1.2,2.3c-0.2,1.2-0.2,2.4,0.3,3.5c0.5,1.3,1.7,2,3,1.6c0.9-0.2,1.3-0.8,1.5-1.7
	c0.8,0,1.7,0,2.5,0C100,15.5,100,15.5,100,15.6z"/>
<path d="M86.5,12.9c0.3,0.1,0.5,0.2,0.8,0.3c1,0.4,1.7,1.1,1.7,2.2c0.1,1.2-0.3,2.1-1.3,2.7c-0.7,0.4-1.5,0.6-2.4,0.7
	c-1.7,0-3.4,0-5.2,0c0-3.7,0-7.4,0-11.2l0,0c2,0,3.9,0,5.9,0.1c0.8,0,1.5,0.4,2,1c1.1,1.3,0.7,3.3-0.9,4
	C86.9,12.7,86.7,12.8,86.5,12.9z M82.4,13.8c0,1.1,0,2.1,0,3.2c0.7,0,1.4,0,2.1,0c0.2,0,0.4,0,0.6-0.1c0.9-0.2,1.3-0.7,1.3-1.6
	c0-0.9-0.4-1.4-1.3-1.5C84.3,13.8,83.4,13.8,82.4,13.8z M82.5,12.3c0.9-0.1,1.8-0.1,2.7-0.2c0.7-0.1,1-0.6,1.1-1.3
	c0-0.7-0.3-1.2-1-1.4c-0.9-0.3-1.8-0.1-2.8-0.2C82.5,10.2,82.5,11.2,82.5,12.3z"/>
<path d="M60.8,14c0,1.6,0,3.2,0,4.8c-0.8,0-1.6,0-2.4,0c0-3.7,0-7.4,0-11.2c0.8,0,1.6,0,2.4,0c0,1.5,0,3,0,4.5c1.6,0,3.2,0,4.9,0
	c0-1.5,0-3,0-4.5c0.8,0,1.6,0,2.4,0c0,3.7,0,7.5,0,11.2c-0.8,0-1.6,0-2.4,0c0-1.6,0-3.2,0-4.8C64.1,14,62.5,14,60.8,14z"/>
<path d="M78.3,10.6c-0.7,0-1.5,0-2.2,0c-0.1,0-0.2-0.1-0.3-0.2c-0.4-1.4-2.1-1.9-3.2-0.9c-0.7,0.6-0.6,1.6,0.2,2
	c0.8,0.3,1.6,0.6,2.4,0.9c0.5,0.2,1.1,0.4,1.6,0.6c2.4,1,2.1,4.1,0.5,5.2c-1.2,0.8-2.6,1.1-4,0.9c-0.7-0.1-1.5-0.2-2.2-0.6
	c-1.3-0.6-1.7-1.7-1.8-3c0.8,0,1.6,0,2.4,0c0,0.1,0.1,0.1,0.1,0.2c0.1,0.8,0.5,1.4,1.3,1.6c1,0.2,1.9,0.1,2.5-0.7
	c0.5-0.6,0.3-1.5-0.4-1.8c-0.6-0.3-1.3-0.4-2-0.7s-1.5-0.5-2.2-0.8c-2.1-1.1-1.8-3.9-0.2-5c0.6-0.4,1.3-0.7,2.1-0.7
	c1.2-0.1,2.3-0.1,3.4,0.3C77.7,8.2,78.3,9.2,78.3,10.6z"/>
</svg>
