<?xml version="1.0" encoding="utf-8"?>
<!-- Generator: Adobe Illustrator 22.1.0, SVG Export Plug-In . SVG Version: 6.00 Build 0)  -->
<svg version="1.0" id="Capa_1" xmlns="http://www.w3.org/2000/svg" xmlns:xlink="http://www.w3.org/1999/xlink" x="0px" y="0px"
	 viewBox="0 0 167 56" style="enable-background:new 0 0 167 56;" xml:space="preserve">
<style type="text/css">
	.st0{fill:#231F20;}
	.st1{fill:#ED3424;}
</style>
<g>
	<path class="st0" d="M121,37.1c-4,0-7.3-1.6-7.3-6h4c0.1,2,1.2,3.1,3.4,3.1c1.6,0,3.5-0.8,3.5-2.7c0-1.4-1.3-1.9-3.3-2.5l-1.3-0.4
		c-2.9-0.8-5.8-2-5.8-5.3c0-4.1,3.8-5.5,7.3-5.5c3.6,0,6.7,1.3,6.7,5.3h-4c-0.2-1.7-1.1-2.7-3-2.7c-1.5,0-3,0.8-3,2.4
		c0,1.4,1.2,1.8,3.8,2.6l1.5,0.5c3.2,1,5.2,2.1,5.2,5.2C128.7,35.5,124.6,37.1,121,37.1"/>
	<path class="st0" d="M131,18.3h6.4c2,0,2.8,0.1,3.6,0.2c2.3,0.5,3.9,2,3.9,4.5c0,2.4-1.5,3.6-3.7,4.2c2.5,0.5,4.3,1.7,4.3,4.5
		c0,4.2-4.1,5.2-7.4,5.2H131V18.3z M137.4,26c1.8,0,3.6-0.4,3.6-2.5c0-1.9-1.7-2.4-3.3-2.4h-2.8V26H137.4z M137.8,34
		c1.9,0,3.7-0.4,3.7-2.7c0-2.2-1.6-2.7-3.5-2.7h-3.2V34H137.8z"/>
	<path class="st0" d="M156.1,37.1c-6,0-8.6-3.8-8.6-9.4c0-5.6,3-9.7,8.9-9.7c3.7,0,7.3,1.6,7.4,5.8h-4.1c-0.2-1.8-1.4-2.8-3.2-2.8
		c-3.6,0-4.7,3.9-4.7,6.9c0,2.9,1.1,6.4,4.6,6.4c1.8,0,3.1-1,3.4-2.8h4.2C163.3,35.5,159.9,37.1,156.1,37.1"/>
	<polygon class="st0" points="107.4,28.9 99.4,28.9 99.4,36.8 95.4,36.8 95.4,18.3 99.4,18.3 99.4,25.9 107.4,25.9 107.4,18.3 
		111.4,18.3 111.4,36.8 107.4,36.8 	"/>
	<polygon class="st1" points="88,27.5 65.9,5.5 65.9,49.6 	"/>
	<polygon class="st1" points="43.8,27.5 65.9,5.5 21.7,5.5 	"/>
	<polygon class="st1" points="-0.3,27.5 21.7,49.6 21.7,5.5 	"/>
	<polygon class="st1" points="43.8,27.5 21.7,49.6 65.9,49.6 	"/>
</g>
</svg>
