<svg id="Capa_1" data-name="Capa 1" xmlns="http://www.w3.org/2000/svg" viewBox="0 0 200 200"><defs><style>.cls-1{fill:#fff;}</style></defs><title>iconos</title><g id="ayVL1t.tif"><path class="cls-1" d="M68.48,167.09H35V32.91H165v54.4c-.08-.51-.18-1-.24-1.53-.47-4-1.8-7.64-5.06-10.27-4.25-3.42-10.21-3.55-15.23-.09-8.73,6-12.81,14.48-12.36,25a13.77,13.77,0,0,0,5,10.44c4.24,3.48,10.33,3.47,15.47.1a26.47,26.47,0,0,0,10.73-14.22,66.85,66.85,0,0,0,1.72-8.4v78.73H131.78c1-.18,2-.34,2.93-.54,6.89-1.45,12.16-5,14.49-11.9,1.89-5.64,1.05-11.13-1.72-16.28a186.12,186.12,0,0,0-23.49-34,27.37,27.37,0,0,0-8-6.8c-7.11-3.63-14.64-4.29-22.38-3A26.09,26.09,0,0,0,79.66,101a84.51,84.51,0,0,0-7.73,8.32,189,189,0,0,0-16.82,24.87,44.5,44.5,0,0,0-4.16,9.1c-2.57,8.28.44,18.45,10.85,22.22A59.7,59.7,0,0,0,68.48,167.09ZM103.62,58.4c0,.71.06,1.54.12,2.36.45,6.08,2.07,11.76,6,16.55,3.36,4.11,7.59,6.53,13.09,5.9a14.81,14.81,0,0,0,11.29-7.63c6.48-10.91,6.54-22.15.81-33.36a16.12,16.12,0,0,0-10-8.51c-5.52-1.62-11.37.55-15.34,5.62C105.25,44.9,103.76,51.38,103.62,58.4Zm-42.35,0c0,.92.06,2,.15,3,.54,5.84,2.16,11.3,5.94,15.91,3.57,4.35,8.06,6.77,13.85,5.81a14.83,14.83,0,0,0,10.46-7.4c6.58-11,6.65-22.29.84-33.59a16.11,16.11,0,0,0-9.9-8.41c-5.51-1.63-11.39.54-15.35,5.6C62.9,44.88,61.39,51.35,61.27,58.39ZM35.19,88.22a59.07,59.07,0,0,0,1.18,6.66c2.22,7.55,6.29,13.75,13.62,17.28,7,3.38,14.5.34,17.13-7,1.89-5.28,1.4-10.57-.5-15.72-2.48-6.72-6.49-12.19-13.19-15.29a12,12,0,0,0-16,5.08A21,21,0,0,0,35.19,88.22Z"/><path d="M68.48,167.09a59.7,59.7,0,0,1-6.68-1.63C51.39,161.69,48.38,151.52,51,143.24a44.5,44.5,0,0,1,4.16-9.1,189,189,0,0,1,16.82-24.87A84.51,84.51,0,0,1,79.66,101a26.09,26.09,0,0,1,13.92-6.41c7.74-1.26,15.27-.6,22.38,3a27.37,27.37,0,0,1,8,6.8,186.12,186.12,0,0,1,23.49,34c2.77,5.15,3.61,10.64,1.72,16.28-2.33,6.94-7.6,10.45-14.49,11.9-1,.2-2,.36-2.93.54Zm31.67-8.85v.06c9.29,0,18.57,0,27.85,0a33.11,33.11,0,0,0,5.08-.36c5.25-.8,8.24-4.15,8.32-9.27a13.73,13.73,0,0,0-2-6.82,183.54,183.54,0,0,0-21.09-30.61,27.6,27.6,0,0,0-5.92-5.46c-4.62-2.94-9.9-3.38-15.25-2.85-4.5.45-8.77,1.73-12.08,5A92.5,92.5,0,0,0,78,115.76a192.21,192.21,0,0,0-14.89,22.08,43.4,43.4,0,0,0-3.56,7.24c-2,5.42.3,10.39,5.57,12.25a15.16,15.16,0,0,0,4.85.87C80,158.28,90.09,158.24,100.15,158.24Z"/><path d="M165,88.36a66.85,66.85,0,0,1-1.72,8.4A26.47,26.47,0,0,1,152.55,111c-5.14,3.37-11.23,3.38-15.47-.1a13.77,13.77,0,0,1-5-10.44c-.45-10.54,3.63-19,12.36-25,5-3.46,11-3.33,15.23.09,3.26,2.63,4.59,6.25,5.06,10.27.06.51.16,1,.24,1.53Zm-8.8-.78a26,26,0,0,0-.89-3.63A3.11,3.11,0,0,0,151,82a9.81,9.81,0,0,0-2.54,1.29A18.78,18.78,0,0,0,141.5,93.7a13,13,0,0,0-.06,8.58c.83,2.17,2.38,2.93,4.56,2.15a9.19,9.19,0,0,0,2.52-1.32C153.46,99.3,155.68,94.1,156.2,87.58Z"/><path d="M103.62,58.4c.14-7,1.63-13.5,6-19.07,4-5.07,9.82-7.24,15.34-5.62a16.12,16.12,0,0,1,10,8.51c5.73,11.21,5.67,22.45-.81,33.36a14.81,14.81,0,0,1-11.29,7.63c-5.5.63-9.73-1.79-13.09-5.9-3.93-4.79-5.55-10.47-6-16.55C103.68,59.94,103.66,59.11,103.62,58.4Zm26.58,0A22.44,22.44,0,0,0,126.25,45c-2.33-3.11-5.11-3.82-7.87-1.91a9,9,0,0,0-2,2c-3,3.88-3.88,8.42-3.89,13.15s1,9.44,4,13.4c2.35,3.09,5.17,3.78,7.87,1.83a9.82,9.82,0,0,0,2.1-2.12C129.25,67.48,130,63,130.2,58.38Z"/><path d="M61.27,58.39c.12-7,1.63-13.51,6-19.08,4-5.06,9.84-7.23,15.35-5.6a16.11,16.11,0,0,1,9.9,8.41c5.81,11.3,5.74,22.61-.84,33.59a14.83,14.83,0,0,1-10.46,7.4c-5.79,1-10.28-1.46-13.85-5.81-3.78-4.61-5.4-10.07-5.94-15.91C61.33,60.35,61.32,59.31,61.27,58.39Zm26.56-.31c-.25-5.17-1.19-9.45-4-13.15-2.32-3.08-5.14-3.78-7.88-1.86a9.44,9.44,0,0,0-2,2c-2.93,3.85-3.84,8.35-3.86,13S71,67.55,74,71.53c2.34,3.12,5.11,3.84,7.85,2A9.43,9.43,0,0,0,84,71.38C87.07,67.24,87.79,62.43,87.83,58.08Z"/><path d="M35.19,88.22a21,21,0,0,1,2.26-9,12,12,0,0,1,16-5.08c6.7,3.1,10.71,8.57,13.19,15.29,1.9,5.15,2.39,10.44.5,15.72-2.63,7.32-10.11,10.36-17.13,7-7.33-3.53-11.4-9.73-13.62-17.28A59.07,59.07,0,0,1,35.19,88.22ZM59.53,99.05A21,21,0,0,0,56,87.64,13.24,13.24,0,0,0,49.33,82a3.22,3.22,0,0,0-4.43,2,7.53,7.53,0,0,0-.5,1.74c-.78,4.73.68,8.94,3.15,12.86a13.18,13.18,0,0,0,6.65,5.82c2.26.8,3.84.08,4.62-2.2A23.54,23.54,0,0,0,59.53,99.05Z"/><path class="cls-1" d="M100.15,158.24c-10.06,0-20.13,0-30.2,0a15.16,15.16,0,0,1-4.85-.87c-5.27-1.86-7.57-6.83-5.57-12.25a43.4,43.4,0,0,1,3.56-7.24A192.21,192.21,0,0,1,78,115.76a92.5,92.5,0,0,1,7.08-7.86c3.31-3.26,7.58-4.54,12.08-5,5.35-.53,10.63-.09,15.25,2.85a27.6,27.6,0,0,1,5.92,5.46,183.54,183.54,0,0,1,21.09,30.61,13.73,13.73,0,0,1,2,6.82c-.08,5.12-3.07,8.47-8.32,9.27a33.11,33.11,0,0,1-5.08.36c-9.28,0-18.56,0-27.85,0Z"/><path class="cls-1" d="M156.2,87.58c-.52,6.52-2.74,11.72-7.68,15.53a9.19,9.19,0,0,1-2.52,1.32c-2.18.78-3.73,0-4.56-2.15a13,13,0,0,1,.06-8.58,18.78,18.78,0,0,1,6.95-10.43A9.81,9.81,0,0,1,151,82a3.11,3.11,0,0,1,4.32,2A26,26,0,0,1,156.2,87.58Z"/><path class="cls-1" d="M130.2,58.38c-.18,4.63-.95,9.1-3.81,12.93a9.82,9.82,0,0,1-2.1,2.12c-2.7,1.95-5.52,1.26-7.87-1.83-3-4-4-8.57-4-13.4s.93-9.27,3.89-13.15a9,9,0,0,1,2-2c2.76-1.91,5.54-1.2,7.87,1.91A22.44,22.44,0,0,1,130.2,58.38Z"/><path class="cls-1" d="M87.83,58.08c0,4.35-.76,9.16-3.86,13.3a9.43,9.43,0,0,1-2.13,2.1c-2.74,1.89-5.51,1.17-7.85-2-3-4-3.92-8.6-3.9-13.42s.93-9.18,3.86-13a9.44,9.44,0,0,1,2-2c2.74-1.92,5.56-1.22,7.88,1.86C86.64,48.63,87.58,52.91,87.83,58.08Z"/><path class="cls-1" d="M59.53,99.05a23.54,23.54,0,0,1-.71,3.17c-.78,2.28-2.36,3-4.62,2.2a13.18,13.18,0,0,1-6.65-5.82c-2.47-3.92-3.93-8.13-3.15-12.86A7.53,7.53,0,0,1,44.9,84a3.22,3.22,0,0,1,4.43-2A13.24,13.24,0,0,1,56,87.64,21,21,0,0,1,59.53,99.05Z"/></g></svg>