<svg xmlns="http://www.w3.org/2000/svg" width="120.012" height="155.335" viewBox="0 0 120.012 155.335">
  <g id="Grupo_563" data-name="Grupo 563" transform="translate(-14907 1192)">
    <path id="Trazado_692" data-name="Trazado 692" d="M89.33,156.47V127.36c-1.44-.41-2.8-.81-4.16-1.17-25-6.66-42.35-27.27-44.9-53-.71-7.19-.57-8.9,7.74-8.59,6.21.23,6.22,0,7.38-5.8,4.06-20.34,22.84-36.18,43.27-36.48,21.93-.33,41,14.33,45.81,35.24.51,2.23.86,4.5,1.34,7.1h8.33c5.62,0,6,.58,5.85,6.16-.46,24-17.35,47.41-43.63,54.94-1.79.51-3.61.92-5.51,1.4V156.3c1,0,1.86.14,2.76.14H134c3.42,0,4.86,1.49,4.86,5v11.74a4.11,4.11,0,0,1-4.34,4.47c-23.15,0-46.31-.14-69.46-.14-2.26,0-3.48-1-3.54-3.05-.13-4.92-.2-9.86,0-14.78.07-2.11,1.47-3.26,3.78-3.24,7,.06,14,0,20.94,0Zm10.26-127c-20.86-.1-38.21,17.28-38.32,38.41a38.758,38.758,0,1,0,77.514.42c.026-22.19-18.164-39.39-39.194-38.8ZM47.67,72c.12,1.63.13,3.14.37,4.61a52.76,52.76,0,0,0,65.61,42.77c20.71-5.53,36.66-24.15,38.7-45.3.07-.7-.7-2.06-1.23-2.14a36.5,36.5,0,0,0-5.43-.11c-2.79,23-20.2,40.48-41.36,42-11.21.8-21.47-1.76-30.61-8.31C62.28,97.32,56.14,86,54.4,72Zm20.86,98.38h63.05v-6.7H68.53Zm34.94-14.06V128.36H96.73V156.3Z" transform="translate(14866.997 -1214.315)"/>
    <path id="Trazado_693" data-name="Trazado 693" d="M99.59,29.5c21-.59,39.22,16.61,39.19,38.83a38.758,38.758,0,1,1-77.514-.42C61.38,46.78,78.73,29.4,99.59,29.5Zm-24,47.4a13.35,13.35,0,0,0,2.65-1.55Q90.85,62.74,103.38,50a3.23,3.23,0,0,0,.78-2.26c-.23-2.67-2.63-3.82-4.77-2.15a73.379,73.379,0,0,0-6.8,6.16q-9.54,9.59-18.9,19.35a4,4,0,0,0-.85,3.32c.33,1,1.71,1.63,2.71,2.48Zm6.58,6.59c.89,1,1.51,2.35,2.51,2.76a3.53,3.53,0,0,0,3.1-.65c5.28-5,10.4-10.23,15.58-15.37,1.41-1.39,1.49-2.84.11-4.22s-3-1.9-4.66-.26c-5,5-10,9.9-15,14.91a14.35,14.35,0,0,0-1.68,2.83Z" transform="translate(14866.997 -1214.315)" fill="#fff"/>
  </g>
</svg>
