<svg xmlns="http://www.w3.org/2000/svg" width="151.242" height="156.26" viewBox="0 0 151.242 156.26">
  <g id="Grupo_574" data-name="Grupo 574" transform="translate(-15862 1192)">
    <path id="Trazado_777" data-name="Trazado 777" d="M49.37,124.39c1.28,0,2.56-.06,3.84,0,1.64.1,2.67,1.1,2.59,2.49a2.37,2.37,0,0,1-2.5,2.4c-2.73.07-5.47.08-8.2,0a2.28,2.28,0,0,1-2.4-2.47,2.33,2.33,0,0,1,2.48-2.4c1.39-.07,2.79,0,4.19,0Z" transform="translate(15837.61 -1213.92)"/>
    <path id="Trazado_778" data-name="Trazado 778" d="M49.24,139.66h-4a2.43,2.43,0,1,1-.17-4.85c2.8-.07,5.59-.07,8.39,0a2.422,2.422,0,1,1-.19,4.84H49.24Z" transform="translate(15837.61 -1213.92)"/>
    <path id="Trazado_779" data-name="Trazado 779" d="M49.25,160.54c-1.28,0-2.56.05-3.84,0-1.7-.09-2.8-1.15-2.75-2.55a2.48,2.48,0,0,1,2.73-2.34q3.84-.07,7.68,0c1.76,0,2.79,1.05,2.74,2.5s-1.09,2.29-2.72,2.39H49.25Z" transform="translate(15837.61 -1213.92)"/>
    <path id="Trazado_780" data-name="Trazado 780" d="M49.31,145.24h4a2.4,2.4,0,0,1,2.48,2.38,2.43,2.43,0,0,1-2.44,2.45c-2.74.06-5.48,0-8.21,0a2.36,2.36,0,0,1-2.48-2.41,2.39,2.39,0,0,1,2.61-2.43C46.63,145.2,48,145.24,49.31,145.24Z" transform="translate(15837.61 -1213.92)"/>
    <g id="Grupo_568" data-name="Grupo 568">
      <path id="Trazado_729" data-name="Trazado 729" d="M61.31,114.39V66.17c0-3.24.64-3.85,3.92-3.86h4.32V55.48c0-4.11.1-4.24,4.28-4.81V45.39c0-2.7.77-3.46,3.41-3.47h3c0-.72.1-1.33.1-1.94V24.92c0-2,.79-3,2.34-3s2.52,1,2.53,3.05V41.96h4.14A2.37,2.37,0,0,1,92,44.53c.06,2,0,4,0,6,.31.18.41.28.51.29,3.52.37,3.88.78,3.87,4.34v7.19h5c2.33,0,3.14.84,3.14,3.19V82.01c.8,0,1.48.13,2.15.13h24.52c3.3,0,3.83.53,3.83,3.89V112.3c0,1.64.39,2.2,2.12,2.18,7.82-.09,15.64,0,23.46,0,2.88,0,3.51.62,3.51,3.47v53.07c0,2.29,0,2.29,2.26,2.28H172c2.5,0,3.68.81,3.63,2.48s-1.22,2.4-3.58,2.4H26.84a2.41,2.41,0,0,1-2.45-2.46,2.36,2.36,0,0,1,2.48-2.39,42.658,42.658,0,0,1,4.38,0c1.38.1,1.8-.39,1.79-1.78-.06-8.11,0-16.22,0-24.34V117.96c0-2.88.63-3.48,3.52-3.49H61.31Zm38.24,58.82V67.36H66.37V173.21c2.84,0,5.57,0,8.29-.06.34,0,.91-.79.94-1.24.11-1.62,0-3.26.05-4.9,0-2,1-3.18,2.49-3.16s2.42,1.17,2.45,3.21,0,3.95,0,6h5.45v-6.6a2.433,2.433,0,1,1,4.85.06c0,1.81,0,3.63.08,5.43a1.573,1.573,0,0,0,1,1.19c2.51.12,5.03.07,7.58.07Zm30.51,0v-86H104.57v84.35c0,.67-.35,1.69.89,1.7h8.21v-6.62a2.44,2.44,0,1,1,4.85,0c0,1.81,0,3.62.07,5.42,0,.4.56,1.11.88,1.11,3.53.06,7,.03,10.59.03ZM38,119.34v53.75h8.6V170.9c0-1.58,0-3.15.06-4.72a2.24,2.24,0,0,1,2.38-2.3,2.3,2.3,0,0,1,2.4,2.11,13.19,13.19,0,0,1,.09,2.09v5h9.64V119.34Zm97,15.08h8.23a2.42,2.42,0,0,1,2.53,2.55,2.33,2.33,0,0,1-2.56,2.31H139c-4.21,0-4.17,0-4,4.22,0,1.11.47,1.38,1.48,1.36h6.82a2.38,2.38,0,0,1,2.51,2.37,2.49,2.49,0,0,1-2.44,2.47h-8.25v5.49h2.5c2,0,4,0,5.95.07A2.39,2.39,0,0,1,144,160a8.609,8.609,0,0,1-1.9.16h-7v12.22c0,.27.57.77.88.77,3,.06,6,0,9.23,0v-6.3c0-1.88.94-3,2.41-3s2.43,1.07,2.46,2.95c0,1.69-.06,3.39.06,5.08,0,.45.57,1.25.9,1.26,2.67.1,5.33.06,8,.06V119.4H135.19V124h7.45c2.06,0,3.18.9,3.2,2.44s-1.1,2.46-3.15,2.5-4.2-.05-6.3,0c-.45,0-1.22.55-1.26.9a44.4,44.4,0,0,0-.06,4.58ZM74.52,62.17H91.34V56H74.52Zm4.27-15.3a30,30,0,0,0,0,3.16,1.17,1.17,0,0,0,.86.78c2.42.07,4.85,0,7.27,0v-4Z" transform="translate(15837.61 -1213.92)"/>
      <path id="Trazado_736" data-name="Trazado 736" d="M83.29,129c-1.83,0-2.94-1-2.91-2.51s1.18-2.47,3-2.45,3,1,2.93,2.53S85.11,129,83.29,129Z" transform="translate(15837.61 -1213.92)"/>
      <path id="Trazado_737" data-name="Trazado 737" d="M92.72,139.31c-1.86,0-3-.87-3-2.35s1.11-2.51,2.9-2.54,3,.9,3,2.39S94.54,139.29,92.72,139.31Z" transform="translate(15837.61 -1213.92)"/>
      <path id="Trazado_738" data-name="Trazado 738" d="M92.61,113.67c1.83,0,3,.89,3,2.38s-1.15,2.5-2.94,2.51-3-.94-3-2.43S90.76,113.69,92.61,113.67Z" transform="translate(15837.61 -1213.92)"/>
      <path id="Trazado_739" data-name="Trazado 739" d="M74,129c-1.81,0-3-1-3-2.46S72.2,124,74,124s2.93.93,2.94,2.47S75.82,129,74,129Z" transform="translate(15837.61 -1213.92)"/>
      <path id="Trazado_740" data-name="Trazado 740" d="M74,160.19c-1.78,0-3-1-3-2.51s1.19-2.44,3-2.43,2.94.92,2.93,2.47S75.77,160.21,74,160.19Z" transform="translate(15837.61 -1213.92)"/>
      <path id="Trazado_741" data-name="Trazado 741" d="M83.38,76.91c-1.92,0-3-.81-3-2.37s1-2.48,2.87-2.5,3,.87,3,2.38S85.2,76.89,83.38,76.91Z" transform="translate(15837.61 -1213.92)"/>
      <path id="Trazado_742" data-name="Trazado 742" d="M92.54,149.76c-1.77,0-2.93-1.06-2.86-2.56s1.18-2.34,3.07-2.32c1.73,0,2.84.93,2.88,2.35S94.44,149.78,92.54,149.76Z" transform="translate(15837.61 -1213.92)"/>
      <path id="Trazado_743" data-name="Trazado 743" d="M92.59,76.91c-1.81,0-3-1-2.92-2.48s1.18-2.4,3-2.39,3,1,2.92,2.49S94.45,76.92,92.59,76.91Z" transform="translate(15837.61 -1213.92)"/>
      <path id="Trazado_744" data-name="Trazado 744" d="M92.63,108.11c-1.83,0-3-.94-2.95-2.45s1.16-2.43,3-2.43,3,1,3,2.47S94.48,108.1,92.63,108.11Z" transform="translate(15837.61 -1213.92)"/>
      <path id="Trazado_745" data-name="Trazado 745" d="M74,108.11c-1.84,0-3-.93-3-2.41s1.18-2.46,3-2.47,2.93.87,2.94,2.44S75.91,108.1,74,108.11Z" transform="translate(15837.61 -1213.92)"/>
      <path id="Trazado_746" data-name="Trazado 746" d="M74,144.88c1.92,0,2.92.84,2.91,2.43s-1.07,2.44-2.94,2.44-3-1-3-2.46S72.17,144.88,74,144.88Z" transform="translate(15837.61 -1213.92)"/>
      <path id="Trazado_747" data-name="Trazado 747" d="M83.4,87.36c-1.84,0-3-.88-3-2.4s1-2.49,2.86-2.5,3,.85,3.06,2.35S85.17,87.34,83.4,87.36Z" transform="translate(15837.61 -1213.92)"/>
      <path id="Trazado_748" data-name="Trazado 748" d="M74,82.47c1.91,0,3,.82,3,2.38s-1.08,2.5-2.9,2.51-3-1-3-2.44S72.13,82.48,74,82.47Z" transform="translate(15837.61 -1213.92)"/>
      <path id="Trazado_749" data-name="Trazado 749" d="M83.38,113.68c1.85,0,3,.95,2.91,2.47s-1.21,2.42-3,2.41-2.91-1-2.88-2.52S81.45,113.66,83.38,113.68Z" transform="translate(15837.61 -1213.92)"/>
      <path id="Trazado_750" data-name="Trazado 750" d="M83.34,139.31c-1.91,0-2.94-.83-3-2.4s1.07-2.48,2.91-2.49,3,.94,3,2.44S85.2,139.3,83.34,139.31Z" transform="translate(15837.61 -1213.92)"/>
      <path id="Trazado_751" data-name="Trazado 751" d="M83.37,108.11c-1.93,0-3-.82-3-2.38s1.06-2.5,2.9-2.5,3,.93,3,2.41S85.21,108.1,83.37,108.11Z" transform="translate(15837.61 -1213.92)"/>
      <path id="Trazado_752" data-name="Trazado 752" d="M74.09,97.72c-1.85,0-3-.86-3.09-2.35s1.11-2.53,2.88-2.57,3,.87,3,2.38S75.92,97.7,74.09,97.72Z" transform="translate(15837.61 -1213.92)"/>
      <path id="Trazado_753" data-name="Trazado 753" d="M83.39,97.71c-1.91,0-3-.81-3-2.36s1.06-2.52,2.87-2.55,3,.91,3,2.41S85.23,97.69,83.39,97.71Z" transform="translate(15837.61 -1213.92)"/>
      <path id="Trazado_754" data-name="Trazado 754" d="M74,113.68c1.9,0,2.92.89,2.88,2.47s-1.16,2.44-3,2.41-3-1-2.93-2.53S72.19,113.66,74,113.68Z" transform="translate(15837.61 -1213.92)"/>
      <path id="Trazado_755" data-name="Trazado 755" d="M83.35,160.18c-1.81,0-2.95-.91-3-2.45s1.05-2.46,2.91-2.47,3,.89,3,2.41S85.14,160.16,83.35,160.18Z" transform="translate(15837.61 -1213.92)"/>
      <path id="Trazado_756" data-name="Trazado 756" d="M73.91,72c1.91,0,3,.82,3,2.36s-1,2.5-2.86,2.52-3-.9-3.06-2.37S72.12,72.06,73.91,72Z" transform="translate(15837.61 -1213.92)"/>
      <path id="Trazado_757" data-name="Trazado 757" d="M74,139.32c-1.83,0-3-.94-3-2.42s1.18-2.48,3-2.48,2.94.9,3,2.45S75.9,139.32,74,139.32Z" transform="translate(15837.61 -1213.92)"/>
      <path id="Trazado_758" data-name="Trazado 758" d="M92.57,124c1.79,0,3,.94,3.05,2.4s-1.12,2.52-2.9,2.56-3-.92-3-2.41A2.547,2.547,0,0,1,92.57,124Z" transform="translate(15837.61 -1213.92)"/>
      <path id="Trazado_759" data-name="Trazado 759" d="M83.36,149.75c-1.87,0-3-.89-3-2.42s1-2.45,2.91-2.46,3,.9,3,2.4S85.17,149.75,83.36,149.75Z" transform="translate(15837.61 -1213.92)"/>
      <path id="Trazado_760" data-name="Trazado 760" d="M92.57,87.36c-1.76,0-2.95-1.07-2.9-2.55s1.2-2.36,3-2.34,3,1,2.89,2.49S94.37,87.38,92.57,87.36Z" transform="translate(15837.61 -1213.92)"/>
      <path id="Trazado_761" data-name="Trazado 761" d="M92.69,97.71c-1.83,0-3-.92-3-2.39s1.17-2.49,2.94-2.52,3,1,3,2.43S94.51,97.7,92.69,97.71Z" transform="translate(15837.61 -1213.92)"/>
      <path id="Trazado_762" data-name="Trazado 762" d="M92.61,155.25c1.81,0,3,.93,3,2.41s-1.17,2.5-2.94,2.52-3-1-3-2.44S90.79,155.28,92.61,155.25Z" transform="translate(15837.61 -1213.92)"/>
      <path id="Trazado_763" data-name="Trazado 763" d="M112.79,129c-1.82,0-3-.9-3-2.43s1.06-2.51,2.88-2.53,3,.94,3,2.42A2.576,2.576,0,0,1,112.79,129Z" transform="translate(15837.61 -1213.92)"/>
      <path id="Trazado_764" data-name="Trazado 764" d="M122,113.67c1.86,0,3,.87,3,2.38s-1.13,2.5-2.92,2.51-3-.94-3-2.42S120.21,113.67,122,113.67Z" transform="translate(15837.61 -1213.92)"/>
      <path id="Trazado_765" data-name="Trazado 765" d="M122.08,144.88c1.86,0,3,.92,2.94,2.45s-1.16,2.43-3,2.42-3-1-3-2.47S120.24,144.87,122.08,144.88Z" transform="translate(15837.61 -1213.92)"/>
      <path id="Trazado_766" data-name="Trazado 766" d="M122.15,139.31c-1.86,0-3-.86-3.08-2.33s1.13-2.54,2.89-2.56,3.11,1,3.07,2.55S123.9,139.29,122.15,139.31Z" transform="translate(15837.61 -1213.92)"/>
      <path id="Trazado_767" data-name="Trazado 767" d="M122,108.11c-1.83,0-3-1-3-2.45s1.18-2.43,3-2.43,3,1,2.94,2.47S123.89,108.11,122,108.11Z" transform="translate(15837.61 -1213.92)"/>
      <path id="Trazado_768" data-name="Trazado 768" d="M112.75,97.71c-1.89,0-3-.86-3-2.41s1.1-2.49,2.92-2.5,3,1,3,2.46S114.59,97.7,112.75,97.71Z" transform="translate(15837.61 -1213.92)"/>
      <path id="Trazado_769" data-name="Trazado 769" d="M112.67,160.18c-1.8,0-2.9-1-2.87-2.54s1.12-2.4,3-2.38,3,1,2.91,2.5S114.46,160.2,112.67,160.18Z" transform="translate(15837.61 -1213.92)"/>
      <path id="Trazado_770" data-name="Trazado 770" d="M122.05,129c-1.78,0-3-1-3-2.47s1.21-2.47,3-2.48,3,1,3,2.48S123.85,129,122.05,129Z" transform="translate(15837.61 -1213.92)"/>
      <path id="Trazado_771" data-name="Trazado 771" d="M112.7,108.11c-1.89,0-2.92-.89-2.9-2.47s1.09-2.42,3-2.41,3,1,2.94,2.49S114.53,108.12,112.7,108.11Z" transform="translate(15837.61 -1213.92)"/>
      <path id="Trazado_772" data-name="Trazado 772" d="M112.7,149.76c-1.84,0-2.92-.95-2.91-2.5s1-2.4,3-2.38,3,1,2.94,2.46S114.5,149.77,112.7,149.76Z" transform="translate(15837.61 -1213.92)"/>
      <path id="Trazado_773" data-name="Trazado 773" d="M112.82,113.68c1.8,0,2.94,1,2.89,2.5s-1.25,2.4-3.06,2.38-2.89-1-2.85-2.55S110.88,113.66,112.82,113.68Z" transform="translate(15837.61 -1213.92)"/>
      <path id="Trazado_774" data-name="Trazado 774" d="M112.75,139.31c-1.93,0-2.94-.83-3-2.41s1.08-2.47,2.92-2.48,3,1,3,2.45S114.58,139.3,112.75,139.31Z" transform="translate(15837.61 -1213.92)"/>
      <path id="Trazado_775" data-name="Trazado 775" d="M122.11,97.71c-1.83,0-3-.91-3-2.38s1.19-2.52,2.94-2.53,3,.93,3,2.43S123.93,97.71,122.11,97.71Z" transform="translate(15837.61 -1213.92)"/>
      <path id="Trazado_776" data-name="Trazado 776" d="M122.09,155.24c1.81,0,3,1,2.93,2.5s-1.2,2.46-3,2.44-3-1.06-3-2.51S120.29,155.23,122.09,155.24Z" transform="translate(15837.61 -1213.92)"/>
      <path id="Trazado_781" data-name="Trazado 781" d="M152.11,139.32c-1.8,0-3-1-2.89-2.51s1.22-2.41,3.05-2.39,2.95,1.06,2.89,2.54S154,139.33,152.11,139.32Z" transform="translate(15837.61 -1213.92)"/>
      <path id="Trazado_782" data-name="Trazado 782" d="M152.24,144.88c1.82,0,2.95,1,2.91,2.47s-1.19,2.42-3,2.4-2.95-1-2.92-2.5S150.38,144.87,152.24,144.88Z" transform="translate(15837.61 -1213.92)"/>
      <path id="Trazado_783" data-name="Trazado 783" d="M152.14,129c-1.78,0-3-1-2.93-2.51s1.23-2.45,3-2.44,3,1,2.93,2.52S153.94,129,152.14,129Z" transform="translate(15837.61 -1213.92)"/>
      <path id="Trazado_784" data-name="Trazado 784" d="M152.23,160.19c-1.76,0-3-1-3-2.45s1.11-2.47,2.93-2.48,3,.93,3,2.4S154,160.17,152.23,160.19Z" transform="translate(15837.61 -1213.92)"/>
    </g>
  </g>
</svg>
