<svg id="Capa_1" data-name="Capa 1" xmlns="http://www.w3.org/2000/svg" viewBox="0 0 200 200"><defs><style>.cls-1{fill:#fff;}</style></defs><title>iconos</title><g id="_2MSh21.tif" data-name="2MSh21.tif"><path d="M185.24,115.49c-.56.23-1.13.4-1.66.67q-41.06,21.08-82.1,42.19a2.92,2.92,0,0,1-3,0q-41.11-21.18-82.25-42.27c-.42-.22-.83-.48-1.43-.83l23.66-12.17a11.23,11.23,0,0,1-1.55-10,10.61,10.61,0,0,1,4.24-5.59c4.68-3.17,9.68-2.38,14.65,2.17a43.61,43.61,0,0,1,5.16-3.27,10,10,0,0,1,8.09.08c1.72.68,2.84-.13,2.61-1.93-.45-3.52-1-7-1.47-10.82-1,.72-1.81,1.31-2.63,1.92-2.21,1.68-4.4,3.39-6.65,5-.37.27-1,.12-1.56.17l-.11-.54,7.55-10L48.07,67.73V66l18.64-2.56c-.84-1.14-1.57-2.14-2.32-3.13-1.54-2-3.12-4-4.6-6.12-.27-.38-.14-1-.2-1.58l.55-.12,10,7.55c.89-6.41,1.73-12.53,2.57-18.63,1.4-.5,1.8,0,2,1.31C75.37,48.39,76.18,54,77,60.05c.91-.68,1.63-1.21,2.35-1.76,2.3-1.74,4.57-3.51,6.91-5.2.39-.27,1-.15,1.59-.21l.14.53-7.59,10,9.88,1.4c2.53.35,5.07.64,7.58,1.05.5.09.91.64,1.36,1-.43.35-.83.93-1.31,1-5.7.85-11.42,1.62-17.52,2.46,2.1,2.78,4.08,5.38,6.14,8.09,3.58-1.84,7.14-3.51,10.54-5.48a5.21,5.21,0,0,1,5.74,0c8.51,4.54,17.13,8.86,25.7,13.3a3.11,3.11,0,0,0,2.78.19,10.49,10.49,0,0,1,11.51,2.45c.35.34.64.75,1.06,1.25a11.23,11.23,0,0,1,8.73-4.45,10.64,10.64,0,0,1,6.8,2.3c4.51,3.49,5.24,8.45,2.19,15.2,4.52,2.33,9,4.68,13.57,7,3.35,1.7,6.72,3.36,10.09,5Zm-150.68-.22c.6.34,1,.6,1.44.82q31.36,16.11,62.71,32.23a2.5,2.5,0,0,0,2.6-.07q24.32-12.54,48.66-25l15.46-7.93-22.24-11.43a11.08,11.08,0,0,1-8.56,3.51,11.21,11.21,0,0,1-8.3-4.38,11,11,0,0,1-17.54.06c-4.29,5-11.66,6.5-17.73,0a10.86,10.86,0,0,1-8.64,4.29,11,11,0,0,1-8.78-4.31c-5.3,5.83-12.25,5.37-17,.82ZM64.81,91.18a5.34,5.34,0,1,0-.06,10.67,5.34,5.34,0,0,0,.06-10.67Zm70.4,10.66a5.34,5.34,0,1,0-5.41-5.34A5.33,5.33,0,0,0,135.21,101.84ZM94.62,96.42A5.34,5.34,0,1,0,100,91.17,5.32,5.32,0,0,0,94.62,96.42Zm63.42.13a5.31,5.31,0,0,0-5.2-5.38,5.34,5.34,0,1,0-.25,10.68A5.3,5.3,0,0,0,158,96.55Zm-111,5.29a5.34,5.34,0,1,0-5.21-5.36A5.33,5.33,0,0,0,47.08,101.84Zm35.33,0a5.34,5.34,0,0,0-.09-10.68,5.34,5.34,0,1,0,.09,10.68Zm35.13-10.67a5.34,5.34,0,0,0,0,10.67,5.34,5.34,0,1,0,0-10.67ZM91.15,90c4.36-5.16,12-6.3,17.58-.12L111,87.36a67.7,67.7,0,0,1-6.71-3.53c-3-2-5.59-2.13-8.58,0a61,61,0,0,1-6.92,3.65ZM77,73.67,75.6,84l8.94-4.61Z"/><path class="cls-1" d="M34.56,115.27,56.68,103.9c4.71,4.55,11.66,5,17-.82a11,11,0,0,0,8.78,4.31,10.86,10.86,0,0,0,8.64-4.29c6.07,6.47,13.44,4.94,17.73,0a11,11,0,0,0,17.54-.06,11.21,11.21,0,0,0,8.3,4.38,11.08,11.08,0,0,0,8.56-3.51l22.24,11.43L150,123.24q-24.33,12.49-48.66,25a2.5,2.5,0,0,1-2.6.07Q67.38,132.17,36,116.09C35.57,115.87,35.16,115.61,34.56,115.27Zm42.19,9.34c-1.08-4.49-2.1-8.74-3.18-13a1.3,1.3,0,0,0-.9-.73c-3.18-.54-3.67-.2-4.46,3-.74,2.93-1.46,5.87-2.17,8.73-1.34-1.67-3.22-.28-4.75-1.15V111H57.83v13.46c.23.09.33.17.43.17,2.77,0,5.55,0,8.32.06,1.72,0,3.51.31,3.12-2.37h2.8l.58,2.29Zm44.11-7.34h-4.51v2.06c.08.07.16.19.24.2,1.23.06,1.12.91.84,1.65a5.66,5.66,0,0,1-1,1.3c-.38-.52-1-1-1.08-1.56a41,41,0,0,1-.09-5.32c0-.91-.32-2.29,1.09-2.36.49,0,1,1.09,1.71,1.86h2.88c-.07-1.72-.5-3.11-2-3.93a4.79,4.79,0,0,0-7.26,3.62,36,36,0,0,0,0,6.48c.25,3.23,2.93,4.61,5.9,3.19a1.77,1.77,0,0,1,.93-.16c.76.11,1.51.3,2.39.49Zm7.37,5.06.53,2.24h3.57a13.81,13.81,0,0,0-.19-1.39c-.69-2.85-1.4-5.7-2.1-8.54-1-3.93-1-3.93-5-3.73a2.23,2.23,0,0,0-.42.17c-1.08,4.42-2.17,8.91-3.31,13.59,1.18,0,2.12,0,3,0,.3,0,.83-.37.82-.57C125.13,121.68,126.73,122.2,128.23,122.33Zm-22.53-8.55h4.38V111h-8v13.58h8.11v-2.88H105.7V119h4.13v-2.81H105.7Zm27.09,6.87c-.2,2.6.84,3.93,3.22,4.18a12,12,0,0,0,2.16,0c2.3-.16,3.49-1.14,3.9-3.15a4.07,4.07,0,0,0-2.3-4.84,15.92,15.92,0,0,1-2.39-1.14,3.29,3.29,0,0,1-1-1.72c-.06-.19.63-.59,1-.89l1.13,1.4.22.25h3.39c-.53-1.19-.72-2.39-1.43-3.07-1.56-1.49-3.59-1.31-5.49-.7-1.7.55-2.25,2-2.33,3.66a4,4,0,0,0,2.67,4.15,8.48,8.48,0,0,1,2.33,1.23,2.43,2.43,0,0,1,.38,1.77c0,.24-.81.71-1,.61a4.89,4.89,0,0,1-1.1-1.2,2,2,0,0,1-.24-.58Zm-53,0H77.13c-.31,2.44.69,3.87,2.94,4.17a12.83,12.83,0,0,0,2.32.06c2.23-.13,3.56-1.14,3.92-2.91.49-2.43-.26-4.09-2.34-5.12a15.13,15.13,0,0,1-2.52-1.24,2.75,2.75,0,0,1-.74-1.67c0-.21.57-.53.88-.8l1.15,1.34c.1.11.19.24.22.27h3c0-3.09-1.67-4.41-5-4.07-2.27.24-3.41,1.18-3.75,3.1-.44,2.41.27,3.93,2.34,4.94.54.27,1.11.49,1.67.73,1,.4,1.67,1,1.35,2.14a1.78,1.78,0,0,1-1,.85A17.12,17.12,0,0,1,79.76,120.64ZM90.9,111c.81,3.67,1.56,7.12,2.31,10.58.7,3.21.7,3.17,4,3.17,1,0,1.46-.34,1.63-1.36.3-1.8.75-3.57,1.13-5.36.49-2.3,1-4.61,1.48-7H97.67l-1.38,9.38-.24,0L94.71,111Z"/><path class="cls-1" d="M64.81,91.18a5.34,5.34,0,0,1-.06,10.67,5.34,5.34,0,1,1,.06-10.67Z"/><path class="cls-1" d="M135.21,101.84a5.34,5.34,0,0,1-.15-10.67,5.34,5.34,0,1,1,.15,10.67Z"/><path class="cls-1" d="M94.62,96.42a5.34,5.34,0,1,1,5.16,5.43A5.36,5.36,0,0,1,94.62,96.42Z"/><path class="cls-1" d="M158,96.55a5.3,5.3,0,0,1-5.45,5.3,5.34,5.34,0,1,1,.25-10.68A5.31,5.31,0,0,1,158,96.55Z"/><path class="cls-1" d="M47.08,101.84a5.34,5.34,0,0,1,.24-10.67,5.34,5.34,0,1,1-.24,10.67Z"/><path class="cls-1" d="M82.41,101.85a5.34,5.34,0,1,1-.09-10.68,5.34,5.34,0,0,1,.09,10.68Z"/><path class="cls-1" d="M117.54,91.18a5.34,5.34,0,1,1,0,10.67,5.34,5.34,0,0,1,0-10.67Z"/><path class="cls-1" d="M91.15,90l-2.37-2.51a61,61,0,0,0,6.92-3.65c3-2.09,5.62-1.93,8.58,0A67.7,67.7,0,0,0,111,87.36l-2.26,2.47C103.13,83.65,95.51,84.79,91.15,90Z"/><path class="cls-1" d="M77,73.67l7.53,5.74L75.6,84Z"/><path d="M76.75,124.61H73.08l-.58-2.29H69.7c.39,2.68-1.4,2.41-3.12,2.37-2.77-.06-5.55,0-8.32-.06-.1,0-.2-.08-.43-.17V111h3.46v10.46c1.53.87,3.41-.52,4.75,1.15.71-2.86,1.43-5.8,2.17-8.73.79-3.17,1.28-3.51,4.46-3a1.3,1.3,0,0,1,.9.73C74.65,115.87,75.67,120.12,76.75,124.61Zm-6.55-5.08,2-.09-.87-4.91-.26,0Z"/><path d="M120.86,117.27v7.52c-.88-.19-1.63-.38-2.39-.49a1.77,1.77,0,0,0-.93.16c-3,1.42-5.65,0-5.9-3.19a36,36,0,0,1,0-6.48,4.79,4.79,0,0,1,7.26-3.62c1.48.82,1.91,2.21,2,3.93H118c-.67-.77-1.22-1.89-1.71-1.86-1.41.07-1,1.45-1.09,2.36a41,41,0,0,0,.09,5.32c.05.55.7,1,1.08,1.56a5.66,5.66,0,0,0,1-1.3c.28-.74.39-1.59-.84-1.65-.08,0-.16-.13-.24-.2v-2.06Z"/><path d="M128.23,122.33c-1.5-.13-3.1-.65-3.07,1.74,0,.2-.52.55-.82.57-.93.08-1.87,0-3,0,1.14-4.68,2.23-9.17,3.31-13.59a2.23,2.23,0,0,1,.42-.17c4-.2,4-.2,5,3.73.7,2.84,1.41,5.69,2.1,8.54a13.81,13.81,0,0,1,.19,1.39h-3.57Zm-1.2-7.65h-.32c-.25,1.58-.51,3.15-.79,4.86l2-.11C127.58,117.77,127.31,116.22,127,114.68Z"/><path d="M105.7,113.78v2.4h4.13V119H105.7v2.69h4.51v2.88H102.1V111h8v2.8Z"/><path d="M132.79,120.65h3.15a2,2,0,0,0,.24.58,4.89,4.89,0,0,0,1.1,1.2c.16.1.95-.37,1-.61a2.43,2.43,0,0,0-.38-1.77,8.48,8.48,0,0,0-2.33-1.23,4,4,0,0,1-2.67-4.15c.08-1.69.63-3.11,2.33-3.66,1.9-.61,3.93-.79,5.49.7.71.68.9,1.88,1.43,3.07h-3.39l-.22-.25-1.13-1.4c-.35.3-1,.7-1,.89a3.29,3.29,0,0,0,1,1.72,15.92,15.92,0,0,0,2.39,1.14,4.07,4.07,0,0,1,2.3,4.84c-.41,2-1.6,3-3.9,3.15a12,12,0,0,1-2.16,0C133.63,124.58,132.59,123.25,132.79,120.65Z"/><path d="M79.76,120.64a17.12,17.12,0,0,0,1.9,1.79,1.78,1.78,0,0,0,1-.85c.32-1.12-.4-1.74-1.35-2.14-.56-.24-1.13-.46-1.67-.73-2.07-1-2.78-2.53-2.34-4.94.34-1.92,1.48-2.86,3.75-3.1,3.29-.34,4.94,1,5,4.07H83s-.12-.16-.22-.27l-1.15-1.34c-.31.27-.91.59-.88.8a2.75,2.75,0,0,0,.74,1.67A15.13,15.13,0,0,0,84,116.84c2.08,1,2.83,2.69,2.34,5.12-.36,1.77-1.69,2.78-3.92,2.91a12.83,12.83,0,0,1-2.32-.06c-2.25-.3-3.25-1.73-2.94-4.17Z"/><path d="M90.9,111h3.81l1.34,9.37.24,0L97.67,111h3.75c-.51,2.41-1,4.72-1.48,7-.38,1.79-.83,3.56-1.13,5.36-.17,1-.59,1.35-1.63,1.36-3.27,0-3.27,0-4-3.17C92.46,118.08,91.71,114.63,90.9,111Z"/><path class="cls-1" d="M70.2,119.53l.82-5,.26,0,.87,4.91Z"/><path class="cls-1" d="M127,114.68c.28,1.54.55,3.09.84,4.76l-2,.11c.28-1.71.54-3.28.79-4.86Z"/></g></svg>