<svg id="Capa_1" data-name="Capa 1" xmlns="http://www.w3.org/2000/svg" viewBox="0 0 200 200"><defs><style>.cls-1{fill:#fff;}</style></defs><title>iconos</title><g id="fxPc9q.tif"><path d="M30,37.52A12,12,0,0,1,31.78,35a4.33,4.33,0,0,1,4.54-.57l15.92,6.24,4.27,1.64A5.08,5.08,0,0,1,60,46.47c1.68,9.31,3.41,18.61,5.13,27.92q2.66,14.34,5.3,28.69c.7,3.77,1.41,7.55,2,11.34.16,1,.52,1.31,1.56,1.31q28.91,0,57.83,0c3.58,0,7.16,0,10.74,0a1.2,1.2,0,0,0,1.37-1c2.87-9.05,5.78-18.09,8.67-27.13l6.65-20.87c.06-.2.1-.42.2-.8l-5.63-.25-43.58-1.84q-12.57-.52-25.14-1.08c-2.12-.09-4.25-.18-6.37-.3a4.41,4.41,0,0,1-4.19-2.83,4.31,4.31,0,0,1,.8-4.6,4.76,4.76,0,0,1,4.13-1.53q8.39.39,16.76.76l43.47,1.85,25.48,1.1c3.75.16,5.63,2.83,4.49,6.43q-4.48,14-9,28c-3.08,9.62-6.12,19.24-9.24,28.84a6.8,6.8,0,0,1-1.6,2.85,8,8,0,0,1-2.87,1.26,4.2,4.2,0,0,1-1.33,0q-32.61,0-65.22,0a1.54,1.54,0,0,0-1.78,1.18c-1.12,3.31-2.34,6.58-3.59,10,.74,0,1.31.08,1.89.08h68.69a9.29,9.29,0,0,1,2.11.15,3.69,3.69,0,0,1-.71,7.28c-.67,0-1.34,0-2,0h-2.08c4.79,7.86,4.56,15-3.38,20.42-5.51,3.79-12.2,2.19-16.25-1.71a13,13,0,0,1-4.11-9,13.6,13.6,0,0,1,3.35-9.56H93.27a13.48,13.48,0,0,1,3,11.8,13,13,0,0,1-5.47,8.16,13.35,13.35,0,0,1-16.62-1.06,12.89,12.89,0,0,1-4.43-9.09,13.43,13.43,0,0,1,3.45-9.93c-1.38,0-2.42,0-3.47,0a3.47,3.47,0,0,1-3.64-2.84,5.32,5.32,0,0,1,.24-2.5c1.42-4.12,2.91-8.21,4.38-12.32.09-.27.15-.55.28-1.06-.76,0-1.41,0-2.06,0a4.6,4.6,0,0,1-4.5-3.9q-1.8-9.9-3.62-19.79Q58,85.15,55.07,69.37C54,63.28,52.83,57.2,51.75,51.11a1.76,1.76,0,0,0-1.25-1.5C44.77,47.4,39.07,45.1,33.33,42.9A5.77,5.77,0,0,1,30,39.54ZM89.14,152.46a5.91,5.91,0,0,0-5.86-6,6,6,0,1,0,5.86,6Zm49.44-.08a6,6,0,0,0-11.94,0,6,6,0,1,0,11.94,0Z"/><path class="cls-1" d="M89.14,152.46a6,6,0,0,1-6,5.93,6,6,0,1,1,.14-12A5.91,5.91,0,0,1,89.14,152.46Z"/><path class="cls-1" d="M138.58,152.38a6,6,0,1,1-5.94-6A5.92,5.92,0,0,1,138.58,152.38Z"/></g></svg>