<svg xmlns="http://www.w3.org/2000/svg" width="149.814" height="122.93" viewBox="0 0 149.814 122.93">
  <g id="Grupo_572" data-name="Grupo 572" transform="translate(-16509.186 1192)">
    <path id="Trazado_807" data-name="Trazado 807" d="M57.16,161.44c-1.35-.35-2.7-.67-4-1.06a38,38,0,0,1-14.63-8A37.58,37.58,0,0,1,26,130.77c-2.64-14,1.15-26,11.22-36.06A37.53,37.53,0,0,1,54.55,85a39.8,39.8,0,0,1,10-1.21c23.87,0,47.75-.08,71.63,0a39.09,39.09,0,0,1,6.72,77.48l-.33.12H128.68a.939.939,0,0,0-.28-.1,38.78,38.78,0,0,1-20.07-10.43,1.44,1.44,0,0,0-1.11-.44H92.64a1.57,1.57,0,0,0-1.2.5,38.5,38.5,0,0,1-16.19,9.44c-1.34.39-2.7.69-4,1ZM99.93,94.07H64.77a28.23,28.23,0,0,0-20.4,8,28,28,0,0,0-8.76,24.41,27.29,27.29,0,0,0,8,16.55,28,28,0,0,0,25,8.42,28.1,28.1,0,0,0,18.52-10.83,1.07,1.07,0,0,1,.74-.36h24.24a1.14,1.14,0,0,1,.78.38c6.92,8.4,15.79,12.16,26.6,10.85a28.78,28.78,0,0,0,24.66-33.07,28.06,28.06,0,0,0-12.56-19.53A28.55,28.55,0,0,0,135,94.06C123.33,94.09,111.63,94.07,99.93,94.07Z" transform="translate(16484 -1230.51)"/>
    <path id="Trazado_808" data-name="Trazado 808" d="M175,40.24c-.16,1.06-.27,2.14-.47,3.19a25.84,25.84,0,0,1-8.3,14.71,24.89,24.89,0,0,1-12,6.12,30.19,30.19,0,0,1-5.77.58c-9,.06-17.91,0-26.87,0a15.87,15.87,0,0,0-14.78,8.84,15.13,15.13,0,0,0-1.73,6.67c0,.16,0,.31,0,.51H94.77c.07-1.05.06-2.11.22-3.14,1.59-10.35,7.24-17.53,17-21.46a25.11,25.11,0,0,1,9.57-1.67h26.93a16.06,16.06,0,0,0,15.92-12.7,27,27,0,0,0,.32-3.38H175Z" transform="translate(16484 -1230.51)"/>
    <path id="Trazado_811" data-name="Trazado 811" d="M58.47,117.15v-8.58a2.82,2.82,0,0,1,2.86-2.91h5.82a2.83,2.83,0,0,1,2.85,2.9v8.59h8.36a2.87,2.87,0,0,1,3.17,3.15v5.34a2.87,2.87,0,0,1-3,3H70v8.4a2.89,2.89,0,0,1-3.14,3.13h-5.4a2.85,2.85,0,0,1-3-3v-8.56H50a2.87,2.87,0,0,1-3.08-3.06v-5.46a2.84,2.84,0,0,1,3-3h7.8Z" transform="translate(16484 -1230.51)"/>
    <path id="Trazado_812" data-name="Trazado 812" d="M129.85,134.46a5.74,5.74,0,1,1,1.681,4.069,5.77,5.77,0,0,1-1.681-4.069Z" transform="translate(16484 -1230.51)"/>
    <path id="Trazado_813" data-name="Trazado 813" d="M118.3,122.83a5.77,5.77,0,1,1,2.759,5.219,5.77,5.77,0,0,1-2.759-5.219Z" transform="translate(16484 -1230.51)"/>
    <path id="Trazado_814" data-name="Trazado 814" d="M141.39,122.87a5.76,5.76,0,1,1,5.76,5.76,5.76,5.76,0,0,1-5.76-5.76Z" transform="translate(16484 -1230.51)"/>
    <path id="Trazado_815" data-name="Trazado 815" d="M129.85,111.39a5.77,5.77,0,1,1,5.765,5.53,5.77,5.77,0,0,1-5.765-5.53Z" transform="translate(16484 -1230.51)"/>
  </g>
</svg>
