<svg xmlns="http://www.w3.org/2000/svg" width="131.949" height="117.665" viewBox="0 0 131.949 117.665">
  <g id="Grupo_567" data-name="Grupo 567" transform="translate(-15579 1192)">
    <path id="iconos-hogar" d="M166,107.49c-1.2,2.94-2.46,3.78-5.67,3.78H148.36v42.17c0,1.65-.25,3.26-1.67,4.25a5.68,5.68,0,0,1-2.92,1.1q-15,.12-30,0c-2.79,0-4.54-2-4.54-5V122.82H90v30.47c0,3.9-1.63,5.53-5.56,5.53H54.81c-3.77,0-5.49-1.73-5.49-5.52V111.28h-1.6c-3.26,0-6.54.1-9.78-.18A4.4,4.4,0,0,1,35,104a10.909,10.909,0,0,1,1.12-1.24L97.75,42.88c2.35-2.29,4.9-2.27,7.23.09q29.63,30,59.22,60.08a16.119,16.119,0,0,1,1.75,2.64Zm-15.6-5.43L101.22,52.31,49.94,102.06h3c3.9,0,5.56,1.66,5.56,5.56v41.93H80.81V118.82c0-3.43,1.74-5.24,5.1-5.25h27.43c2.52,0,4.27,1.2,4.83,3.27a9.75,9.75,0,0,1,.23,2.42v30.31h20.72V107.28c0-3.43,1.8-5.21,5.25-5.22,1.87-.01,3.71,0,5.98,0Z" transform="translate(15544.949 -1233.181)"/>
  </g>
</svg>
