<svg xmlns="http://www.w3.org/2000/svg" width="108.968" height="166.9" viewBox="0 0 108.968 166.9">
  <g id="Grupo_566" data-name="Grupo 566" transform="translate(-15426.457 1188.3)">
    <path id="Trazado_710" data-name="Trazado 710" d="M63,149.25a17.28,17.28,0,0,1-1.08-4c-.13-4.77-.07-9.54,0-14.3,0-2.83,1.25-4.07,4-4.09h6.3a1.47,1.47,0,0,0,1.71-1.18c1.39-4.31,2.88-8.59,4.27-12.9a5.39,5.39,0,0,0,0-1.92c-.07-.73-.3-1.45-.3-2.17V98.31c0-3.46,1.05-4.46,4.45-4.52l1-.06a278,278,0,0,0,6.9-49.6h-5.3V36.8H89.9c.18-.27.3-.37.29-.45-.67-4.9,2.74-8,5-11.72a5.74,5.74,0,0,0,.86-2.4c.13-1.85,0-3.72,0-5.67h7.33c0,2-.06,4,0,6a3.93,3.93,0,0,0,.74,1.95c1.7,2.4,3.57,4.7,5.18,7.17a6.29,6.29,0,0,1,.47,2.93,17.191,17.191,0,0,1-.25,2.54h4.61v7.26h-4.66C110,61.28,112.58,77.69,116,94c.19.1.28.19.39.2,4.48.24,5.09.88,5.1,5.43,0,2.83.42,5.75-.08,8.49-1.24,6.79,2.36,12.33,4.19,18.33.12.38.9.76,1.39.78,2.21.09,4.42,0,6.64,0,2.48,0,3.82,1.31,3.84,3.76,0,5.06.09,10.11,0,15.15,0,1.13-.81,2.24-1.25,3.35h-.6c2.19,3.88,4.19,7.88,6.6,11.61,3.32,5.14,6.95,10.08,10.45,15.11a12.088,12.088,0,0,1,1.2,1.84,3.7,3.7,0,0,1-3.42,5.38q-10.38.06-20.76,0c-2.24,0-3.27-.81-4-3a41.93,41.93,0,0,0-8.2-15.33c-4.22-4.86-9.24-8.35-15.83-9.1a20.1,20.1,0,0,0-14.23,4c-6.65,4.72-10.59,11.38-13.26,18.91-.15.43-.26.87-.41,1.3a4.2,4.2,0,0,1-4.44,3.2H49.74c-1.62,0-3.11-.19-3.92-1.78a4.92,4.92,0,0,1,.37-5c.7-1.16,1.68-2.14,2.42-3.28q7.69-11.92,15.35-23.87Zm66.71-14.71H69.61v8.22H129.7Zm-28.23-90h-4A260.792,260.792,0,0,1,91,94.05h17a316.449,316.449,0,0,1-6.53-49.48ZM81.71,127.06h36c-1.36-4.32-2.63-8.49-4-12.61a1.9,1.9,0,0,0-1.4-1q-12.5-.09-25,0a1.77,1.77,0,0,0-1.34.86C84.51,118.52,83.13,122.76,81.71,127.06Zm61.12,49.19c0-.25.08-.32.06-.35A181.887,181.887,0,0,1,128,151.35a2.32,2.32,0,0,0-1.74-.87c-3.8-.08-7.6,0-11.4,0h-4.81a1.6,1.6,0,0,0,.82.72,33.53,33.53,0,0,1,10.51,7.39,47.2,47.2,0,0,1,10.13,16.37c.19.5.68,1.26,1,1.27C136,176.29,139.43,176.25,142.83,176.25ZM89,150.45H72.42c-.44,0-1,.6-1.28,1.06a131.39,131.39,0,0,1-14.38,23.2c-.32.41-.59.87-1,1.5,3.22,0,6.11-.12,9,.05,1.73.1,2.36-.54,3-2.1,4.08-10.28,10.31-18.7,20.83-23.25C88.71,150.89,88.79,150.73,89,150.45Zm25-44.37V101.5H85.23v4.58ZM97.8,37c1.44-.26,3.42,0,4.34-.93,1.17-1.11-.06-3.44-2.28-5.17C98.75,32.62,96.8,34,97.8,37Z" transform="translate(15381.15 -1204.86)"/>
  </g>
</svg>
