<svg xmlns="http://www.w3.org/2000/svg" width="189.99" height="111.69" viewBox="0 0 189.99 111.69">
  <g id="Grupo_571" data-name="Grupo 571" transform="translate(-16309 1192)">
    <path id="Trazado_794" data-name="Trazado 794" d="M132.65,110.94V78.3c0-6.16,2.2-8.42,8.28-8.43h45.74c6.15,0,8.32,2.21,8.32,8.37v65.78c0,6.17-2.2,8.42-8.28,8.43h-46c-5.81,0-8.05-2.28-8.07-8.12Q132.625,127.635,132.65,110.94Zm57.82,28V75.87h-53.3V139Zm-36.3,9.73c1.91-.16,3.1-1.11,3.27-3a3.27,3.27,0,0,0-3.18-3.4,3.36,3.36,0,0,0-3.29,3.32c.13,1.94,1.36,2.87,3.2,3.11Zm16-3.27a3.25,3.25,0,0,0,6.49.14,3.2,3.2,0,0,0-3.06-3.29,3.29,3.29,0,0,0-3.41,3.18ZM164,142.26a3.32,3.32,0,0,0-3.38,3.37,3.11,3.11,0,0,0,3.26,3,3.06,3.06,0,0,0,3.17-3.31A3.13,3.13,0,0,0,164,142.26Z" transform="translate(16304 -1236.19)"/>
    <path id="Trazado_795" data-name="Trazado 795" d="M26.72,52.56V91H18.44V51.5c0-5.72,1.63-7.31,7.39-7.31H148c5.74,0,7.36,1.61,7.38,7.34V64.06H147.2V52.56Z" transform="translate(16304 -1236.19)"/>
    <path id="Trazado_796" data-name="Trazado 796" d="M126,133.36H44.54V117.67H126ZM86.8,121.77a3.82,3.82,0,1,0,.01,0Z" transform="translate(16304 -1236.19)"/>
    <path id="Trazado_797" data-name="Trazado 797" d="M5,126.31V101.82C5,98.1,6.14,97,9.86,97h22.5c3.6,0,4.75,1.15,4.75,4.71v49.46c0,3.39-1.24,4.67-4.58,4.68q-11.51.06-23,0c-3.2,0-4.51-1.33-4.52-4.52C5,143,5,134.63,5,126.31ZM8.2,103.1v43.28H34V103.1Zm15.3,46.57c-1.19-.73-1.89-1.48-2.56-1.45s-1.57,1.1-1.47,1.48a2.5,2.5,0,0,0,1.61,1.65C21.67,151.42,22.36,150.51,23.5,149.67Z" transform="translate(16304 -1236.19)"/>
    <path id="Trazado_798" data-name="Trazado 798" d="M107.45,152H66c1.17-1.22,2-2.19,2.92-3a9.26,9.26,0,0,0,3.31-6.93c0-2.16.89-3.07,3.14-3,7.66.09,15.32,0,23,.11.81,0,2.25.66,2.33,1.16A17.52,17.52,0,0,0,107.45,152Z" transform="translate(16304 -1236.19)"/>
  </g>
</svg>
