<svg xmlns="http://www.w3.org/2000/svg" width="180.071" height="102.968" viewBox="0 0 180.071 102.968">
  <g id="Grupo_564" data-name="Grupo 564" transform="translate(-15038 1192)">
    <path id="Trazado_697" data-name="Trazado 697" d="M76.06,118.3H47.73c-4.11,0-5.69-2.75-3.61-6.3,9-15.31,17.94-30.63,27-45.89a5.11,5.11,0,0,0,.26-5c-.86-2.3-2.07-3.29-4.54-2.91a21,21,0,0,1-4.19,0c-2.31-.12-3.8-1.56-3.84-3.58A3.64,3.64,0,0,1,62.7,50.9c5.78-.07,11.56,0,17.34,0h4C86.5,51,88,52.38,88,54.52s-1.45,3.59-3.89,3.67c-1.87.07-3.75,0-5.77,0,.23,1.53.47,2.53,2.27,2.52h45.27c.41,0,.82-.07,1.44-.13-.85-2.2-1.66-4.28-2.44-6.37-1.27-3.4.29-5.65,3.94-5.66,7.12,0,14.24-.07,21.36,0a9.32,9.32,0,0,1,.14,18.63c-2.22,0-3.8-1.16-4-3.1a3.55,3.55,0,0,1,3.17-4.14c1.36-.22,2.45-.65,2.36-2.19s-1.35-1.93-2.76-1.92H133.44c3,7.9,6,15.62,9,23.35,2.39-.4,4.64-.91,6.91-1.13a36.67,36.67,0,0,1,38.51,24.19c8.1,21.9-7,46.34-30.2,48.93a36.83,36.83,0,0,1-41.11-32.33,28.2,28.2,0,0,1-.18-4,3.61,3.61,0,0,1,3.36-3.84,3.73,3.73,0,0,1,3.92,3.51c.3,2.29.35,4.62.85,6.86A29.44,29.44,0,1,0,153,85.17a77.893,77.893,0,0,0-7.87.83c.34.94.53,1.54.76,2.13l9.75,25.34c.13.34.27.68.39,1,.79,2.31.07,4.26-1.86,5.07s-4-.1-4.94-2.42c-3.4-8.71-6.75-17.45-10.12-26.17l-6.49-16.83c-.19-.49-.41-1-.68-1.63-.43.56-.77,1-1.07,1.41q-14.16,21.2-28.23,42.4a4.27,4.27,0,0,1-4,2h-15c-.38,1.8-.69,3.52-1.1,5.22-4.19,17.17-19.84,28.71-37.88,27.93-16.81-.72-31.56-14-34.19-30.89A36.91,36.91,0,0,1,45.18,77.81h1.46a3.66,3.66,0,0,1,3.79,3.62,3.52,3.52,0,0,1-3.68,3.68,30.76,30.76,0,0,0-16.32,5A29.47,29.47,0,1,0,75.67,120.7C75.82,120,75.9,119.3,76.06,118.3Zm6.22-50.12C88.17,81.2,94,94,99.89,107.11L125.8,68.18Zm-6.39,4.23c-2.58,4.38-4.93,8.4-7.32,12.47a37.39,37.39,0,0,1,15,26H93.5ZM64.81,91.27,53.29,110.89H76.07A29.57,29.57,0,0,0,64.81,91.27Z" transform="translate(15028.002 -1240.519)"/>
  </g>
</svg>
