<svg id="Capa_1" data-name="Capa 1" xmlns="http://www.w3.org/2000/svg" viewBox="0 0 200 200"><title>iconos</title><path d="M6.56,162.84c-.54-3-1.93-6.17-1.47-9,1.2-7.37,5.86-13,12.2-16.39C26,132.76,35.14,129,44.2,125.05c6.27-2.72,13-4.46,19-7.74,5.56-3.06,10.33-7.55,15.43-11.44q7.4-5.66,14.76-11.36c.93-.72,2.3-1.5,2.49-2.45,1.78-8.88,7.79-14.83,14-20.68,4.1-3.86,6.08-8.42,4.52-14.11a15.13,15.13,0,0,0-29.33,0c-.28,1,0,2.38-.56,3.14-1.33,1.77-2.93,4.49-4.59,4.63-3.35.27-4.1-2.68-4-5.72.44-10.62,9.48-20.34,20.52-22a24.09,24.09,0,0,1,25.85,16.11c2.84,8.7.85,16.35-5.34,23-3,3.16-6.28,6-9,9.35-1.71,2.12-2.58,4.93-2.13,6.72,5.46,5,10.7,10.28,16.45,14.93,5,4,10.17,8.13,15.92,10.77,10.12,4.65,20.81,8,31.13,12.27C180.74,135.2,191,141.35,195,154.17v8.67ZM184.35,154l1.19-1.64c-3.34-3-6.26-6.88-10.12-8.89A167,167,0,0,0,151.17,133c-15.81-5.25-30.31-11.9-41-25.64-6-7.69-14.18-7.09-21.12-.15a33.89,33.89,0,0,0-2.89,3.22C79.57,119,71,124.71,60.9,128.32c-5.93,2.12-12,4-17.76,6.46A219.05,219.05,0,0,0,21.3,145.27c-3,1.68-4.89,5.15-8.16,8.76Z"/></svg>