<svg xmlns="http://www.w3.org/2000/svg" width="154.69" height="113.937" viewBox="0 0 154.69 113.937">
  <g id="Grupo_565" data-name="Grupo 565" transform="translate(-15229 1191.96)">
    <path id="Trazado_701" data-name="Trazado 701" d="M143.48,43h.16a9.294,9.294,0,0,0,.41.84L175.9,98.39c.46.79.9,1.59,1.39,2.47-5.78,3.63-11.62,7-17.63,10.22l-3.55-5.66a6.649,6.649,0,0,0-.38.81,24.69,24.69,0,0,1-3.86,7.18,2.31,2.31,0,0,0-.25,1.4c.06.81.33,1.6.36,2.41a11.18,11.18,0,0,1-7.35,10.72,3.68,3.68,0,0,0-2.63,3c-1.09,4.2-4.05,6.55-8.17,7.54a1.36,1.36,0,0,0-1.12,1.15,12.35,12.35,0,0,1-2.79,5.57,12.1,12.1,0,0,1-7.33,4,3.62,3.62,0,0,0-2.81,1.9,4.71,4.71,0,0,1-.45.65,12.2,12.2,0,0,1-12.71,4.82,35.13,35.13,0,0,1-6.11-2.49,4.92,4.92,0,0,0-4.06-.36c-5.42,1.76-11.22-.9-13.14-5.29-.31-.71-.79-.76-1.47-.59a10.51,10.51,0,0,1-12.71-7.07,1,1,0,0,0-1.18-.85c-1.24,0-2.47.06-3.71,0a9.6,9.6,0,0,1-8.54-8.43c-.05-.65-.07-1.29-.1-1.95-.87-.12-1.68-.2-2.48-.35a10.44,10.44,0,0,1-8.2-9.06c-.18-2.57-.1-5.11,1.31-7.4a1.42,1.42,0,0,0-.07-1.65c-.83-1.45-1.53-3-2.29-4.47-.13-.26-.25-.53-.42-.86L40.24,111c-6.08-3.2-12-6.49-17.64-10.14v-.16c.06-.09.12-.17.17-.26L55.72,44c.15-.26.32-.52.56-.92L74.1,53.27,71.39,58c.55-.08.86-.1,1.16-.17a111.77,111.77,0,0,1,16.87-2.67c3.57-.3,7-.07,10.2,1.91a1.33,1.33,0,0,0,1.07,0A18.14,18.14,0,0,1,109,55.43a107.55,107.55,0,0,1,14.85,1.82l4.39.81.15-.21-2.53-4.42c.44-.3.81-.59,1.22-.83q3.21-1.91,6.45-3.79ZM51.42,107.77a8.017,8.017,0,0,1,1-.4,11.1,11.1,0,0,1,7.35-.08C64,109,66.78,112,67.51,116.62c.1.62.33.8.94.86,4.69.39,8.09,2.67,9.51,7.22a2.92,2.92,0,0,0,3,2.37c5.61.5,10.9,6.6,9.12,12.92a.59.59,0,0,0,.32.81c1.72,1,3.41,2,5.12,3,3.62,2.07,7.21,4.2,10.89,6.19,2.31,1.26,4.6.68,6.7-.67,1-.62.94-1,0-1.64-1.66-1.15-3.38-2.23-5-3.38a32.861,32.861,0,0,1-2.75-2.11,2.17,2.17,0,0,1-.8-2.18,3.11,3.11,0,0,1,4.7-2.17,12,12,0,0,1,1.12.73c1.45,1,2.87,2,4.35,3a8.28,8.28,0,0,0,4.35,1.69c2.77.05,5.31-.47,6.85-3.14.94-1.64.93-1.76-.71-2.71-1.91-1.1-3.89-2.09-5.73-3.29a14.81,14.81,0,0,1-3-2.7,2.9,2.9,0,0,1,3.8-4.35c1.41.83,2.72,1.81,4.12,2.63a23,23,0,0,0,4.64,2.46c3.52,1.07,5.56.24,6.76-2.32.61-1.3.56-1.56-.73-2.3-1.69-1-3.43-1.85-5-3a27.339,27.339,0,0,1-3.9-3.3,2.9,2.9,0,0,1,.26-4.16,2.39,2.39,0,0,1,3-.35c1.46.82,2.85,1.78,4.27,2.67a48.224,48.224,0,0,0,4.17,2.53,5.52,5.52,0,0,0,7.83-3.42,2.54,2.54,0,0,0-.41-2.52,8.4,8.4,0,0,0-1.09-1.14c-6.35-5.3-12.37-11-18.19-16.81-5.1-5.13-10-10.44-15-15.65-.26-.27-.61-.62-.91-.62A10.9,10.9,0,0,0,104,83.15c-1.57,1-3.18,2-4.73,3-5.33,3.56-10.64,7.16-16,10.7A8.31,8.31,0,0,1,80.66,98a8.52,8.52,0,0,1-7.56-1.76c-3-2.48-4.64-5.59-4.11-9.6a10.13,10.13,0,0,1,2.57-5.15A103.08,103.08,0,0,1,92.51,62c.22-.15.41-.32.76-.58h-.53A78.88,78.88,0,0,0,74,64a16.88,16.88,0,0,0-11,8.39c-4.23,7.62-8.82,15-13.33,22.52a7.17,7.17,0,0,0-1,4,14,14,0,0,0,2.75,8.86Zm69.1-24.7-.14.16c.47.55.9,1.14,1.41,1.65,4.59,4.63,9.13,9.31,13.82,13.84,3.48,3.36,7.14,6.52,10.75,9.74.89.79,1,.72,1.63-.31a10.393,10.393,0,0,0,.53-1,21.48,21.48,0,0,0,2.38-9.46,4.19,4.19,0,0,0-.65-2.59c-.69-1.06-1.28-2.17-1.92-3.26-4.4-7.41-8.82-14.8-13.18-22.23a9.7,9.7,0,0,0-5.26-4.28c-.79-.28-1.58-.58-2.38-.8a94.921,94.921,0,0,0-18.28-2.78,13,13,0,0,0-7.13,1.58A61.37,61.37,0,0,0,87.28,74.22C83.52,78.05,79.89,82,76.19,85.88a3,3,0,0,0-1,2.52,4.21,4.21,0,0,0,2.55,3.45,1.86,1.86,0,0,0,1.81-.08c1-.63,2.09-1.21,3.1-1.88q9.16-6.06,18.32-12.16a13.82,13.82,0,0,1,6.6-2.11,43,43,0,0,1,17.22,2.21,2.52,2.52,0,0,1,1.86,2.4c.09,2.37-1,3.41-3.36,3.2-.96-.09-1.86-.24-2.77-.36ZM55,123a6.82,6.82,0,0,0,4.19-1.36c1.39-1.05,2.42-2.39,2.13-4.2A5,5,0,0,0,58,113.36a4.51,4.51,0,0,0-5.09,1,5.39,5.39,0,0,0-1.78,5.47A4,4,0,0,0,55,123Zm10.5,10.89a7.47,7.47,0,0,0,6.38-4.08,3.9,3.9,0,0,0,.09-3.72c-1.61-2.67-4.08-2.86-6.57-1.24a8,8,0,0,0-3.22,4.81,3.27,3.27,0,0,0,3.32,4.23Zm13.59,7.91c2.92,0,5.37-2.48,5-5a4.35,4.35,0,0,0-6.82-2.8,5.46,5.46,0,0,0-1.93,2.72c-.84,2.55.27,4.45,2.9,5C78.58,141.77,78.92,141.78,79.09,141.8Z" transform="translate(15206.4 -1234.96)"/>
  </g>
</svg>
