<svg xmlns="http://www.w3.org/2000/svg" width="136.05" height="135.951" viewBox="0 0 136.05 135.951">
  <g id="Grupo_562" data-name="Grupo 562" transform="translate(-14760 1192)">
    <path id="Trazado_676" data-name="Trazado 676" d="M142,168H120.72a4.09,4.09,0,0,1-1.87-3.85V133.36a5.72,5.72,0,0,0-.66-2.74,21.531,21.531,0,0,0-2.9-4A81.279,81.279,0,0,0,100,114.33c-2,1.42-4,2.82-6,4.29a55.3,55.3,0,0,0-10.55,9.6,9.34,9.34,0,0,0-2.27,6.2c.12,9.91,0,19.82.07,29.73A4.09,4.09,0,0,1,79.3,168H58.06a3.46,3.46,0,0,1-1.61-3.29c.07-2.86-.07-5.74,0-8.6a5.66,5.66,0,0,0-1.86-4.41c-2.14-2.16-2.14-2.16-4.32,0-.12.13-.24.26-.37.38a4.13,4.13,0,0,0-1.46,3.47c.07,2.87-.06,5.74,0,8.6A4,4,0,0,1,46.65,168h-13A3.27,3.27,0,0,1,32,165.24q.06-31.26,0-62.52A2.43,2.43,0,0,1,34.71,100h3c-.49-1.69-.89-3.08-1.3-4.46a35.811,35.811,0,0,1-1.7-5.95c-.57-5.2,1.3-9.65,4.82-13.45A37.5,37.5,0,0,1,49.14,69c1.58-.88,3.19-2,5.07-.8,3.1,2.07,6.17,4.17,9.2,6.33,1.38,1,2.62,2.14,3.93,3.22-.32.29-.26.22-.26.14V75.24A27.05,27.05,0,0,1,70.43,61.5c3.31-6.4,8.26-11.33,13.94-15.54,3.67-2.72,7.65-5,11.54-7.58-.74-2.42-.32-4.22,1.38-5.53a5,5,0,0,1,5.2-.14,4.46,4.46,0,0,1,1.55,5.82c3.59,2.33,7.14,4.5,10.54,6.88a49.57,49.57,0,0,1,13.08,12.91c3.46,5.18,5.56,10.8,5.27,17.15v2.81c.94-1.07,1.63-2,2.48-2.82a47,47,0,0,1,9.6-6.92,4.5,4.5,0,0,1,4.67-.22,40.3,40.3,0,0,1,11.83,9.27,15.8,15.8,0,0,1,3.78,8.55,19,19,0,0,1-2,10.51,14.86,14.86,0,0,0-.76,3.37c2.19.21,4.33-.56,5.5,1.66V168h-14.6a4,4,0,0,1-1.89-3.84c.1-3,.08-6.09,0-9.13a4.23,4.23,0,0,0-.79-2.26,18.5,18.5,0,0,0-2.4-2.45,1.17,1.17,0,0,0-.9-.28c-1.73.58-3.83,3.67-3.84,5.54v9.13A3.47,3.47,0,0,1,142,168Zm-4-5.64c0-2.71-.16-5.29.06-7.84a12.85,12.85,0,0,1,1.38-4.5c1.4-2.73,4-4.36,6.38-6.07a2.88,2.88,0,0,1,3.16-.17,22,22,0,0,1,6.25,5.34,10.47,10.47,0,0,1,2.16,7.06v6.18h5V105.61H125.57c-2.59,0-4-1.24-4-4.06V92.12h-43v9.49c0,2.66-1.38,4-3.92,4-11.77-.07-23.54,0-35.31,0H37.71v56.71h5c0-2.41-.07-4.71,0-7a9.94,9.94,0,0,1,1.14-4.6c1.57-2.8,4-4.69,6.51-6.49a3.3,3.3,0,0,1,4.07-.12,33.391,33.391,0,0,1,4.91,4.12,9.39,9.39,0,0,1,2.76,7.34c-.16,2.24,0,4.49,0,6.78H75.32V133.49A11.61,11.61,0,0,1,77,127.42,30.45,30.45,0,0,1,84.4,119c4.14-3.23,8.35-6.38,12.51-9.59a4.65,4.65,0,0,1,6.34.07c1,.78,2,1.5,3.06,2.21a72.86,72.86,0,0,1,14.11,12,16,16,0,0,1,4.34,11.1c-.12,8.72,0,17.44,0,26.15v1.42ZM99.87,43A94.762,94.762,0,0,0,86,52a47.83,47.83,0,0,0-8.35,8.65,25.21,25.21,0,0,0-5,12.53A25.07,25.07,0,0,0,74.8,85.4c.36.85.95.86,1.69.86h47.1a1.84,1.84,0,0,0,1.4-.78,25.93,25.93,0,0,0,2.27-9.28c.36-5.09-1.28-9.68-4-13.91A42.14,42.14,0,0,0,115,53,89.7,89.7,0,0,0,99.87,43Zm59.21,48.8a10.27,10.27,0,0,0-.26-7.69c-2.31-4.76-6.38-7.6-10.81-10a1.39,1.39,0,0,0-1.16.07,27.7,27.7,0,0,0-9.21,7.58,10.37,10.37,0,0,0-1.4,10.09Zm-106.71,0H62.85c.44,0,1.2-.3,1.25-.56.51-2.72.59-5.37-.83-8a19.9,19.9,0,0,0-4.9-5.54A45.09,45.09,0,0,0,53,74.05a1.72,1.72,0,0,0-1.35.13,27,27,0,0,0-8.23,6.38c-2.59,2.87-3.76,6.13-2.74,10.06.27,1,.68,1.21,1.59,1.2,3.38-.04,6.73-.02,10.1-.02ZM43,97.44v2.49H61.71V97.44Zm114,0H138.35V100H157Zm-27-8.17c-3.19,3-2.74,6.84-2.54,10.67h5.09a11.89,11.89,0,0,0-.47-3.4A17.17,17.17,0,0,1,130,89.27ZM72.67,100c0-1.79-.12-3.47,0-5.13.2-2.39-1.83-3.64-2.29-5.25-.68,2.06-1.43,4.24-2.1,6.45-.38,1.24-.62,2.53-1,3.93Z" transform="translate(14728.02 -1224.049)"/>
    <path id="Trazado_678" data-name="Trazado 678" d="M46.65,168a4,4,0,0,0,1.89-3.84c-.11-2.86,0-5.73,0-8.6A4.13,4.13,0,0,1,50,152.09c.13-.12.25-.25.37-.38,2.18-2.17,2.18-2.17,4.32,0a5.66,5.66,0,0,1,1.86,4.41c-.12,2.86,0,5.74,0,8.6A3.46,3.46,0,0,0,58.06,168Z" transform="translate(14728.02 -1224.049)" fill="#fff"/>
    <path id="Trazado_679" data-name="Trazado 679" d="M142,168a3.47,3.47,0,0,0,1.62-3.29c-.07-3,0-6.08,0-9.13,0-1.87,2.11-5,3.84-5.54a1.17,1.17,0,0,1,.9.28,18.5,18.5,0,0,1,2.4,2.45,4.23,4.23,0,0,1,.79,2.26c.09,3,.11,6.09,0,9.13a4,4,0,0,0,1.89,3.84Z" transform="translate(14728.02 -1224.049)" fill="#fff"/>
    <path id="Trazado_686" data-name="Trazado 686" d="M130,89.27a17.17,17.17,0,0,0,2.08,7.27,11.89,11.89,0,0,1,.47,3.4h-5.09C127.24,96.11,126.79,92.25,130,89.27Z" transform="translate(14728.02 -1224.049)" fill="#fff"/>
    <path id="Trazado_687" data-name="Trazado 687" d="M72.67,100H67.35a40.2,40.2,0,0,1,1-3.93c.67-2.21,1.42-4.39,2.1-6.45.46,1.61,2.49,2.86,2.29,5.25A45.636,45.636,0,0,0,72.67,100Z" transform="translate(14728.02 -1224.049)" fill="#fff"/>
    <path id="Trazado_688" data-name="Trazado 688" d="M147.64,135.73c-2.5-.13-5-.17-7.49-.42a2.33,2.33,0,0,1-2.16-2.64c0-3.53-.12-7.08,0-10.61a10.08,10.08,0,0,1,2.93-6.23c1.19-1.34,2.68-2.41,3.9-3.73,1.72-1.85,3.9-1.52,5.54,0a55.807,55.807,0,0,1,5.1,5.55,9.65,9.65,0,0,1,1.85,6c.08,2.74,0,5.48,0,8.22a3.43,3.43,0,0,1-3.75,3.74h-6Zm.23-18.33c-5.1,2.95-4.46,7.66-4.23,12.28h7.88c0-2.11.11-4.14-.05-6.15a7.16,7.16,0,0,0-1-3.13,24.26,24.26,0,0,0-2.6-3Z" transform="translate(14728.02 -1224.049)"/>
    <path id="Trazado_689" data-name="Trazado 689" d="M52.4,135.61H46.57c-2.51,0-3.84-1.23-3.89-3.71-.06-2.83-.13-5.67,0-8.49a12.89,12.89,0,0,1,5.18-9.64,11.1,11.1,0,0,0,.86-.82c2.66-2.65,4.09-2.91,6.86-.56,2.41,2,4.84,4.23,5.86,7.42a10.81,10.81,0,0,1,.57,2.9c.07,3.1,0,6.19,0,9.29.06,2.94-1.37,3.44-3.56,3.58C56.48,135.71,54.43,135.61,52.4,135.61Zm-3.89-5.94h7.86c.3-4.7.79-9.39-4.17-12.28a13.241,13.241,0,0,0-1.66,1.75c-.75,1.14-1.77,2.32-1.94,3.58a50.119,50.119,0,0,0-.09,6.95Z" transform="translate(14728.02 -1224.049)"/>
  </g>
</svg>
