<?xml version="1.0" encoding="utf-8"?>
<!-- Generator: Adobe Illustrator 22.1.0, SVG Export Plug-In . SVG Version: 6.00 Build 0)  -->
<svg version="1.0" id="Capa_1" xmlns="http://www.w3.org/2000/svg" xmlns:xlink="http://www.w3.org/1999/xlink" x="0px" y="0px"
	 viewBox="0 0 694.3 93.5" style="enable-background:new 0 0 694.3 93.5;" xml:space="preserve">
<style type="text/css">
	.st0{fill:#EE3424;}
	.st1{fill:#BCBEC0;}
</style>
<g>
	<g>
		<path class="st0" d="M393.6,85.5V5.3h20.1c15.4-0.3,32.8,3.6,32.8,22.7c0,19.1-17.3,23-32.8,22.7h-12.9v34.9H393.6z M400.8,43.9
			h17.6c10.8,0,20.3-3.4,20.3-16c0-12.6-9.6-16-20.3-16h-17.6V43.9z"/>
		<path class="st0" d="M491,29.7h6.7v43.2c0,4.3,0.3,8.8,0.6,12.6h-6.9l-0.3-8.2l-0.2-0.2c-3.9,6.9-10.2,10.1-17.4,10.1
			c-18.2,0-19.7-16.1-19.7-22.5V29.7h6.7v36c0,9.7,5.6,15.3,14.7,15.3c11,0,16-9.2,16-19.2V29.7z"/>
		<path class="st0" d="M516.6,85.5h-6.7V42.3c0-4.3-0.3-8.8-0.6-12.6h6.9l0.3,8.2l0.2,0.2c3.9-6.9,10.2-10.1,17.4-10.1
			c18.2,0,19.7,16.1,19.7,22.5v34.9h-6.7v-36c0-9.7-5.6-15.3-14.7-15.3c-11,0-16,9.2-16,19.2V85.5z"/>
		<path class="st0" d="M570.9,35.8h-11.1v-6.1h11.1V17.8l6.7-2.9v14.8h12.7v6.1h-12.7v37.3c-0.1,5.1,2.6,7.9,7.7,7.9
			c2,0,4-0.1,5.8-0.7v5.8c-2.1,0.6-4.6,1-6.8,1c-14.1,0-13.3-9-13.3-16.5V35.8z"/>
		<path class="st0" d="M645.5,57.6c0,14.7-8.2,29.5-26,29.5s-26-14.9-26-29.5c0-14.7,8.2-29.5,26-29.5S645.5,42.9,645.5,57.6z
			 M619.5,34.2c-13.4,0-18.8,13.1-18.8,23.4c0,10.3,5.3,23.4,18.8,23.4c13.4,0,18.8-13.1,18.8-23.4C638.3,47.3,633,34.2,619.5,34.2z
			"/>
		<path class="st0" d="M672.3,28.1c10.6,0,19.4,3.7,20.3,15.4h-7.2c-0.7-7-6.9-9.3-13.8-9.3c-6.2,0-12.6,2.4-12.6,9
			c0,8.2,10.8,7.4,25.9,12.8c5.8,2,9.4,7,9.4,13c0,12.6-11.7,18.2-23.4,18.2c-9.7,0-20.8-4.6-21-16.9h7.2
			c0.6,8.3,7.9,10.8,15.4,10.8c7.1,0,14.5-3.3,14.5-11.1c0-8-8.8-9.3-17.7-11.3c-8.8-2.1-17.7-4.7-17.7-15
			C651.9,32.1,662.5,28.1,672.3,28.1z"/>
	</g>
	<g>
		<path class="st1" d="M322.6,6.7h18.8v30h30.1v18.8h-30.1v30h-18.8v-30h-30.1V36.7h30.1V6.7z"/>
	</g>
	<g>
		<path d="M-0.6,86.6V7.1h17.1v31.4h30.1V7.1h17.3v79.5H46.8V51.7H16.5v34.9H-0.6z"/>
		<path d="M115.8,29.7c-0.7-8-5-12-13.2-12C96.4,17.7,90,21,90,28c0,8.6,7.7,9.6,14.5,11.2c12.1,3.1,30,6.5,30,22.5
			c0,19.7-17.2,26.5-34.3,26.5c-18.2,0-31.1-7-30.5-27.1h17.4c-0.7,8.8,4.4,14.8,13.3,14.8c6.8,0,15.9-2.1,15.9-10.6
			c0-9.4-11.3-10-18.2-11.8C87,50.8,71.8,45.7,71.8,31.6c0-18.2,16.7-26.2,33-26.2c15.4,0,27.4,8.4,27.4,24.3H115.8z"/>
		<path d="M141.3,86.6V7.1h29.8c14.2-0.9,28.7,5.1,28.7,20.6c0,8.7-6.1,14.8-14,17.4v0.2c10,2.1,17.5,9,17.5,20.7
			c0,15.8-19.8,21.5-32.1,20.6H141.3z M171.7,39c7.2,0,11.1-3,11.1-9.4c0-6.4-4-9.4-11.1-9.4h-13.3V39H171.7z M171.7,73.4
			c8,0,13.5-1.4,13.5-10.6c0-9.1-5.5-10.6-13.5-10.6h-13.3v21.1H171.7z"/>
		<path d="M254.1,32.8c0.1-8.4-5-15.1-15.2-15.1c-12.1,0-15.2,18-15.2,29.1c0,11.1,3.1,29.1,15.2,29.1c10.2,0,15.3-6.7,15.2-15.1
			h18.2c-0.8,19.9-15.1,27.4-33.4,27.4c-23,0-33.4-18.2-33.4-41.4c0-23.2,10.4-41.4,33.4-41.4c18.3,0,32.6,7.5,33.4,27.4H254.1z"/>
	</g>
</g>
</svg>
